<svg height="512" viewBox="0 0 52 58" width="512" xmlns="http://www.w3.org/2000/svg"><g id="008---ATM" fill="none"><path id="Shape" d="m27.3 0-27.3-.00000385v8.82700385c.00005915.82500398.15192083 1.6429554.448 2.413.36487348.9483838.55199339 1.9558482.552 2.972v36.959c-.00015201.5307362.21065617 1.0397695.586 1.415l5.414 5.414h27c.5522847 0 1-.4477153 1-1v-38l-6.759-18.346c-.1452698-.39392735-.521142-.65516053-.941-.654z" fill="#2c3e50"/><path id="Shape" d="m35 52.75v4.25c0 .5522847-.4477153 1-1 1h-27v-39h28z" fill="#547580"/><path id="Shape" d="m35 19h-28l-7-19h27.3c.4187597.00009821.7931091.26110518.938.654z" fill="#35495e"/><path id="Shape" d="m28.55 15h-18.41c-.21051504-.0000896-.3984249-.1320263-.47-.33l-3.69-10c-.0553877-.15319995-.03266943-.32377775.06088396-.4571411.0935534-.13336335.24621111-.2127896.40911604-.2128589h18.41c.210515.00008957.3984249.13202628.47.33l.87 2.35 2.82 7.65c.0553877.1532.0326694.3237777-.060884.4571411s-.2462111.2127896-.409116.2128589z" fill="#67b9cc"/><path id="Shape" d="m7 19v39l-5.414-5.414c-.37509875-.3749855-.58588673-.8836104-.586-1.414v-36.96c.00008015-.9672656-.16913973-1.9270808-.5-2.836-.33109019-.9095505-.50031363-1.87006268-.5-2.838l-.00000044-8.538z" fill="#2c3e50"/><path id="Shape" d="m11 10c-.4043959-.00008635-.7689341-.2437275-.923678-.61734544-.15474391-.37361794-.0692299-.80366031.216678-1.08965456l2-2c.2510745-.25995658.6228779-.3642126.9725073-.27269716.3496295.09151544.6226744.3645604.7141899.71418984.0915154.34962943-.0127406.72143285-.2726972.97250732l-2 2c-.1874927.18754937-.4418052.29294336-.707.293z" fill="#9fc9d3"/><path id="Shape" d="m13 13c-.4043959-.0000863-.7689341-.2437275-.923678-.6173454-.1547439-.373618-.0692299-.8036603.216678-1.0896546l5-5c.2510745-.25995658.6228779-.3642126.9725073-.27269716.3496295.09151544.6226744.3645604.7141899.71418984.0915154.34962943-.0127406.72143285-.2726972.97250732l-5 5c-.1874927.1875494-.4418052.2929434-.707.293z" fill="#9fc9d3"/><rect id="Rectangle-path" fill="#2c3e50" height="4" rx="1" width="8" x="17" y="25"/><path id="Shape" d="m11 26c-.5522847 0-1-.4477153-1-1v-2c0-.5522847.4477153-1 1-1s1 .4477153 1 1v2c0 .5522847-.4477153 1-1 1z" fill="#9fc9d3"/><path id="Shape" d="m11 55c-.5522847 0-1-.4477153-1-1v-25c0-.5522847.4477153-1 1-1s1 .4477153 1 1v25c0 .5522847-.4477153 1-1 1z" fill="#9fc9d3"/><path id="Shape" d="m28.55 15h-13.46c1.64-2.61 5.19-7 11.11-8.32l2.82 7.65c.0553877.1532.0326694.3237777-.060884.4571411s-.2462111.2127896-.409116.2128589z" fill="#2fa8cc"/><rect id="Rectangle-path" fill="#ff5364" height="31" rx="3" width="23" x="29" y="23"/><path id="Rectangle-path" d="m42 23h5v31h-5z" fill="#35495e"/><circle id="Oval" cx="35.5" cy="42.5" fill="#35495e" r="2.5"/><circle id="Oval" cx="35.5" cy="47.5" fill="#2c3e50" r="2.5"/></g></svg>