<?xml version="1.0" encoding="utf-8"?>
<!-- Generator: Adobe Illustrator 22.1.0, SVG Export Plug-In . SVG Version: 6.00 Build 0)  -->
<svg version="1.1" id="Capa_1" xmlns="http://www.w3.org/2000/svg" xmlns:xlink="http://www.w3.org/1999/xlink" x="0px" y="0px"
	 width="512px" height="512px" viewBox="0 0 512 512" style="enable-background:new 0 0 512 512;" xml:space="preserve">
<style type="text/css">
	.st0{fill:#17479E;}
</style>
<g>
	<path class="st0" d="M439.7,64.5C393,21.5,334.9,0,265.6,0C192.7,0,130.5,24.4,79.2,73.4s-77,109.9-77,182.8
		c0,69.9,24.4,129.9,73.2,180.3c49,50.3,114.8,75.5,197.6,75.5c49.9,0,98.9-10.2,147-30.8c15.7-6.7,23.3-24.6,16.9-40.4l0,0
		c-6.6-16.3-25.2-23.8-41.4-16.9c-41.8,18-82.7,26.9-122.6,26.9c-63.5,0-112.7-19.3-147.6-58.1c-34.8-38.6-52.2-84.1-52.2-136.2
		c0-56.6,18.7-103.8,56-141.7C166.3,77,212.2,58,266.5,58c50,0,92.3,15.6,126.8,46.7S445,174.9,445,222.2c0,32.3-7.9,59.2-23.7,80.6
		c-15.8,21.5-32.2,32.2-49.2,32.2c-9.2,0-13.8-4.9-13.8-14.8c0-8,0.6-17.4,1.8-28.3L379.5,133h-66.8l-4.3,15.6
		c-17-13.9-35.7-20.9-56-20.9c-32.2,0-59.7,12.8-82.6,38.4c-23,25.6-34.4,58.6-34.4,98.9c0,39.4,10.1,71.2,30.5,95.4
		c20.4,24.2,44.8,36.2,73.4,36.2c25.6,0,47.4-10.8,65.6-32.2c13.7,20.6,33.8,30.8,60.5,30.8c39.2,0,73-17,101.5-51.2
		c28.5-34,42.8-75.2,42.8-123.4C509.8,159.7,486.5,107.6,439.7,64.5z M285.7,304.9c-11.8,15.9-25.9,23.9-42.3,23.9
		c-11.2,0-20.2-5.8-26.9-17.5c-6.9-11.7-10.3-26.2-10.3-43.7c0-21.5,4.8-38.9,14.4-52s21.5-19.8,35.7-19.8
		c12.3,0,23.3,4.9,32.9,14.8c9.6,9.9,14.4,23.1,14.4,39.6C303.5,270.7,297.5,288.9,285.7,304.9z"/>
</g>
</svg>
