<?xml version="1.0" encoding="utf-8"?>
<!-- Generator: Adobe Illustrator 23.0.5, SVG Export Plug-In . SVG Version: 6.00 Build 0)  -->
<svg version="1.1" id="Layer_1" xmlns="http://www.w3.org/2000/svg" xmlns:xlink="http://www.w3.org/1999/xlink" x="0px" y="0px"
	 width="119.9px" height="22.7px" viewBox="0 0 119.9 22.7" style="enable-background:new 0 0 119.9 22.7;" xml:space="preserve">
<style type="text/css">
	.st0{fill:#00ADEE;}
	.st1{fill-rule:evenodd;clip-rule:evenodd;fill:#00ADEE;}
</style>
<path class="st0" d="M23.8,13.7c0-1.4,0-1.6,0-1.9c0-0.3,0.1-0.5,0.3-0.5c0.1,0,0.3,0,0.4,0s0.2,0,0.2-0.1s-0.1-0.1-0.2-0.1
	c-0.4,0-1,0-1.2,0s-0.8,0-1.3,0c-0.1,0-0.2,0-0.2,0.1s0.1,0.1,0.2,0.1s0.2,0,0.3,0c0.3,0.1,0.4,0.2,0.4,0.5s0,0.5,0,1.9v1.6
	c0,0.8,0,1.6,0,1.9c0,0.3-0.1,0.5-0.3,0.5c-0.1,0-0.2,0-0.3,0c-0.1,0-0.1,0-0.1,0.1s0.1,0.1,0.2,0.1c0.2,0,0.4,0,0.6,0s0.4,0,0.5,0
	c0.4,0,0.7,0,1.1,0s0.9,0,1.5,0c0.5,0,0.5,0,0.6-0.2c0.1-0.3,0.1-1,0.1-1.1s0-0.2-0.1-0.2s-0.1,0.1-0.1,0.1c0,0.2-0.1,0.4-0.2,0.5
	c-0.2,0.2-0.6,0.3-1.1,0.3c-0.7,0-1-0.1-1.1-0.2c-0.2-0.2-0.2-0.8-0.2-2C23.8,15.1,23.8,13.7,23.8,13.7z"/>
<path class="st0" d="M16.8,13.7c0-1.4,0-1.6,0-1.9c0-0.3,0.1-0.5,0.3-0.5c0.1,0,0.2,0,0.3,0c0.1,0,0.1,0,0.1-0.1s-0.1-0.1-0.2-0.1
	c-0.3,0-0.9,0-1.1,0c-0.2,0-0.8,0-1.3,0c-0.1,0-0.2,0-0.2,0.1s0.1,0.1,0.2,0.1c0.1,0,0.3,0,0.4,0c0.3,0.1,0.4,0.2,0.4,0.5
	s0,0.5,0,1.9v1.6c0,0.8,0,1.6,0,1.9c0,0.3-0.1,0.5-0.3,0.5c-0.1,0-0.2,0-0.3,0s-0.1,0-0.1,0.1s0.1,0.1,0.2,0.1c0.4,0,0.9,0,1.2,0
	c0.2,0,0.8,0,1.3,0c0.1,0,0.2,0,0.2-0.1c0,0,0-0.1-0.1-0.1s-0.3,0-0.4,0c-0.2,0-0.3-0.2-0.3-0.5c0-0.4,0-1.1,0-2v-0.8l0,0l0.1,0.1
	c0.2,0.3,2,2.4,2.4,2.7s0.6,0.5,1.1,0.6c0.2,0,0.4,0,0.6,0h0.8c0.2,0,0.2,0,0.2-0.1s-0.1-0.1-0.1-0.1c-0.1,0-0.3,0-0.6-0.1
	c-0.5-0.2-0.9-0.6-1.3-1c-0.4-0.3-2.1-2.3-2.5-2.7c0.3-0.3,1.7-1.7,2-2c0.4-0.4,0.7-0.6,1-0.7C21,11,21.2,11,21.3,11s0.1,0,0.1-0.1
	s-0.1-0.1-0.2-0.1c-0.3,0-0.8,0-1.1,0c-0.2,0-0.7,0-0.9,0C19,11,19,11,19,11.1s0,0.1,0.1,0.1s0.1,0.1,0.1,0.2c0,0.2-0.2,0.4-0.5,0.7
	s-1.6,1.7-1.9,2l0,0C16.8,14.1,16.8,13.7,16.8,13.7z"/>
<path class="st0" d="M11.9,16.3c0,1.8,0,2.7-0.7,3.4C11,19.9,10.9,20,10.8,20c-0.2,0.1-0.2,0.1-0.2,0.2c0,0,0,0.1,0.1,0.1
	c0,0,0.1,0,0.2-0.1c0.2-0.1,0.3-0.2,0.5-0.2c0.9-0.5,1.4-1.2,1.6-1.7c0.2-0.5,0.2-1.1,0.2-1.6s0-0.9,0-1.3v-1.7c0-1.4,0-1.6,0-1.9
	c0-0.3,0.1-0.5,0.3-0.5c0.1,0,0.2,0,0.3,0s0.2,0,0.2-0.1s-0.1-0.1-0.2-0.1c-0.4,0-0.9,0-1.2,0c-0.2,0-0.8,0-1.3,0
	C11,11,11,11,11,11.1s0.1,0.1,0.2,0.1c0.1,0,0.3,0,0.4,0c0.3,0.1,0.4,0.2,0.4,0.5s0,0.5,0,1.9L11.9,16.3L11.9,16.3z"/>
<path class="st1" d="M11.3,0c0.8,0,1.5,0.1,2.2,0.2C8,0.9,3.8,5.6,3.8,11.3s4.3,10.4,9.8,11.1c-0.7,0.1-1.5,0.2-2.2,0.2
	C5.1,22.7,0,17.6,0,11.3C0,5.1,5.1,0,11.3,0z M12.3,1.9c3.9,0,7.1,3.2,7.8,7.4c-1.3-2.8-3.9-4.6-6.8-4.6c-4.3,0-7.8,4-7.8,9
	c0,1.3,0.2,2.5,0.6,3.6c-1.2-1.6-2-3.8-2-6.1C4.3,6,7.9,1.9,12.3,1.9z M12.7,5.6c2.6,0,4.8,1.8,5.5,4.2c-1.1-1.9-3.1-3.1-5.5-3.1
	c-2.3,0-4.3,1.2-5.5,3.1C7.9,7.3,10.1,5.6,12.7,5.6z"/>
<path class="st0" d="M32,15.3c0,0.9,0,1.6,0,2c0,0.3-0.1,0.4-0.3,0.5c-0.1,0-0.2,0-0.3,0c-0.1,0-0.1,0-0.1,0.1s0.1,0.1,0.2,0.1
	c0.4,0,0.9,0,1.2,0c0.2,0,0.8,0,1.4,0c0.1,0,0.2,0,0.2-0.1c0,0,0-0.1-0.1-0.1s-0.3,0-0.5,0c-0.3,0-0.3-0.2-0.4-0.5c0-0.4,0-1.1,0-2
	v-1.6c0-1.4,0-1.7,0-2s0.1-0.5,0.3-0.5c0.1,0,0.2,0,0.3,0s0.1,0,0.1-0.1S33.9,11,33.8,11c-0.4,0-0.9,0-1.1,0c-0.3,0-0.8,0-1.2,0
	c-0.1,0-0.2,0-0.2,0.1s0.1,0.1,0.1,0.1c0.1,0,0.2,0,0.3,0c0.2,0,0.3,0.2,0.3,0.5s0,0.6,0,2C32,13.7,32,15.3,32,15.3z M36.5,12.9
	L36.5,12.9c0.2,0.2,1.2,1.3,2.2,2.3c1,0.9,2.1,2.2,2.7,2.7c0.1,0.1,0.2,0.2,0.3,0.2s0.1-0.1,0.1-0.3L42,12c0-0.5,0.1-0.7,0.3-0.8
	c0.1,0,0.2,0,0.3,0s0.2,0,0.2-0.1S42.7,11,42.6,11c-0.5,0-0.8,0-0.9,0c-0.2,0-0.6,0-1.1,0c-0.1,0-0.2,0-0.2,0.1s0,0.1,0.1,0.1
	s0.4,0,0.5,0.1c0.2,0.1,0.3,0.3,0.3,0.8l0.1,4.1l0,0c-0.2-0.1-1.4-1.5-2-2.1c-1.3-1.3-2.7-2.8-2.9-2.9c-0.2-0.2-0.2-0.3-0.3-0.3
	C36,10.9,36,11,36,11.2l-0.1,5.4c0,0.8,0,1.1-0.3,1.1c-0.1,0-0.3,0-0.4,0c-0.1,0-0.1,0-0.1,0.1s0.1,0.1,0.2,0.1c0.5,0,0.9,0,1,0
	c0.2,0,0.5,0,1.1,0c0.1,0,0.2,0,0.2-0.1s-0.1-0.1-0.2-0.1c-0.1,0-0.3,0-0.5-0.1s-0.3-0.3-0.3-1L36.5,12.9z M46,14.5L46,14.5
	c0.2-0.1,1.2-0.1,1.4-0.1c0.3,0,0.4,0.2,0.5,0.3c0,0.1,0.1,0.2,0.1,0.3s0,0.1,0.1,0.1s0.1-0.1,0.1-0.2c0-0.1,0-0.5,0-0.7
	c0-0.3,0.1-0.5,0.1-0.6s0-0.1-0.1-0.1s-0.1,0-0.1,0.1C48,14,47.8,14,47.7,14s-0.3,0-0.4,0h-1.2C46,14,46,14,46,13.9v-2.3
	c0-0.1,0-0.1,0.1-0.1h1.4c0.4,0,0.5,0.1,0.6,0.3c0.1,0.1,0.1,0.3,0.1,0.4c0,0.1,0,0.1,0.1,0.1s0.1-0.1,0.1-0.1c0-0.1,0-0.7,0-0.7
	c0-0.2,0.1-0.4,0.1-0.4s0-0.1-0.1-0.1c0,0-0.1,0-0.1,0.1c-0.1,0-0.2,0-0.4,0s-2.1,0-2.4,0c-0.1,0-0.3,0-0.6,0c-0.2,0-0.5,0-0.7,0
	c-0.1,0-0.2,0-0.2,0.1s0.1,0.1,0.2,0.1c0.1,0,0.3,0,0.4,0c0.3,0.1,0.4,0.2,0.4,0.5s0,0.6,0,2v1.6c0,0.9,0,1.6,0,2
	c0,0.3-0.1,0.5-0.3,0.5c-0.1,0-0.2,0-0.3,0s-0.1,0-0.1,0.1s0.1,0.1,0.2,0.1c0.4,0,0.9,0,1.2,0c0.2,0,0.8,0,1.4,0
	c0.1,0,0.2,0,0.2-0.1c0,0,0-0.1-0.2-0.1c-0.1,0-0.3,0-0.5,0c-0.3,0-0.3-0.2-0.4-0.5c0-0.4,0-1.1,0-2v-0.9H46z M53.3,18.1
	c2.3,0,3.8-1.7,3.8-3.8s-1.4-3.4-3.7-3.4c-2.8,0-3.8,2-3.8,3.6S50.6,18.1,53.3,18.1z M53.7,17.6c-1.8,0-2.8-1.5-2.8-3.4
	c0-2.3,1.2-2.9,2.3-2.9c1.5,0,2.7,1.3,2.7,3.3C55.8,17.3,54.3,17.6,53.7,17.6z M62.7,18.1c0.5,0,1-0.1,1.5-0.4
	c0.7-0.4,0.9-1.1,0.9-1.6c0-0.9-0.4-1.5-1.5-2.4l-0.3-0.2c-0.8-0.6-1-0.9-1-1.3c0-0.6,0.4-0.9,1.1-0.9c0.6,0,0.9,0.3,1,0.5
	c0.2,0.2,0.2,0.5,0.2,0.6s0,0.2,0.1,0.2s0.1-0.1,0.1-0.3c0-0.7,0-1,0-1.1s0-0.1-0.1-0.1c-0.2-0.1-0.6-0.2-1.2-0.2
	c-1.3,0-2.1,0.7-2.1,1.7c0,0.7,0.4,1.4,1.4,2.2l0.4,0.3c0.8,0.6,0.9,1,0.9,1.5s-0.4,1.1-1.2,1.1c-0.6,0-1.1-0.2-1.3-0.9
	c0-0.2-0.1-0.4-0.1-0.5s0-0.2-0.1-0.2s-0.1,0.1-0.1,0.2s0,0.7,0,1.2c0,0.2,0,0.2,0.2,0.3C61.8,18,62.2,18.1,62.7,18.1z M70,18.1
	c2.3,0,3.8-1.7,3.8-3.8s-1.4-3.4-3.7-3.4c-2.8,0-3.8,2-3.8,3.6S67.3,18.1,70,18.1z M70.4,17.6c-1.8,0-2.8-1.5-2.8-3.4
	c0-2.3,1.2-2.9,2.3-2.9c1.5,0,2.7,1.3,2.7,3.3C72.5,17.3,71,17.6,70.4,17.6z M76.9,13.7c0-1.4,0-1.7,0-2s0.1-0.5,0.3-0.5
	c0.1,0,0.3,0,0.4,0s0.2,0,0.2-0.1S77.7,11,77.6,11c-0.4,0-1,0-1.3,0c-0.2,0-0.8,0-1.3,0c-0.1,0-0.2,0-0.2,0.1s0.1,0.1,0.2,0.1
	s0.2,0,0.3,0c0.3,0.1,0.4,0.2,0.4,0.5s0,0.6,0,2v1.6c0,0.8,0,1.6,0,2c0,0.3-0.1,0.5-0.3,0.5c-0.1,0-0.2,0-0.3,0
	c-0.1,0-0.1,0-0.1,0.1s0.1,0.1,0.2,0.1c0.2,0,0.4,0,0.6,0s0.4,0,0.5,0c0.4,0,0.7,0,1.1,0s0.9,0,1.6,0c0.5,0,0.5,0,0.6-0.2
	c0.1-0.3,0.1-1,0.1-1.1s0-0.2-0.1-0.2s-0.1,0.1-0.1,0.1c0,0.2-0.1,0.4-0.2,0.6c-0.2,0.2-0.6,0.3-1.1,0.3c-0.7,0-1-0.1-1.1-0.2
	c-0.2-0.2-0.2-0.8-0.2-2V13.7z M80.7,15c0,1.3,0.4,2,0.8,2.4c0.7,0.6,1.6,0.6,2,0.6c0.6,0,1.3-0.1,1.9-0.7c0.8-0.7,0.9-1.8,0.9-2.8
	v-1c0-1.4,0-1.7,0-2s0.1-0.5,0.3-0.5c0.1,0,0.2,0,0.3,0c0.1,0,0.2,0,0.2-0.1s-0.1-0.1-0.2-0.1c-0.4,0-0.9,0-1.1,0c0,0-0.6,0-1.1,0
	c-0.1,0-0.2,0-0.2,0.1s0.1,0.1,0.2,0.1s0.3,0,0.3,0c0.3,0.1,0.4,0.2,0.4,0.5s0,0.6,0,2v1.2c0,0.9,0,1.8-0.5,2.3
	c-0.4,0.4-0.9,0.5-1.3,0.5c-0.3,0-0.7,0-1.2-0.4s-0.7-0.9-0.7-2.3v-1.3c0-1.4,0-1.7,0-2S81.8,11,82,11c0.1,0,0.2,0,0.3,0
	c0.1,0,0.1,0,0.1-0.1s-0.1-0.1-0.2-0.1c-0.3,0-0.9,0-1.1,0c-0.3,0-0.9,0-1.3,0c-0.1,0-0.2,0-0.2,0.1s0.1,0.1,0.2,0.1s0.3,0,0.4,0
	c0.3,0.1,0.4,0.2,0.4,0.5s0,0.6,0,2L80.7,15L80.7,15z M90.2,15.3c0,0.8,0,1.6,0,2c0,0.3-0.1,0.5-0.3,0.5c-0.1,0-0.2,0-0.3,0
	c-0.1,0-0.1,0-0.1,0.1s0.1,0.1,0.2,0.1c0.4,0,0.9,0,1.2,0c0.3,0,0.8,0,1.4,0c0.1,0,0.2,0,0.2-0.1c0,0,0-0.1-0.1-0.1s-0.3,0-0.5,0
	c-0.3,0-0.3-0.2-0.4-0.5c0-0.4,0-1.1,0-2v-3.8h1.2c0.8,0,1.1,0.3,1.1,0.5v0.1c0,0.1,0,0.2,0.1,0.2s0.1-0.1,0.1-0.1
	c0-0.2,0-0.9,0-1.1c0-0.1,0-0.2-0.1-0.2c0,0-0.1,0-0.2,0s-0.3,0-0.6,0h-3.6c-0.3,0-0.7,0-0.9,0c-0.2,0-0.3-0.1-0.4-0.1
	s-0.1,0.1-0.1,0.2c0,0.1-0.2,0.9-0.2,1.1c0,0.1,0,0.1,0.1,0.1s0.1,0,0.1-0.1s0.1-0.2,0.2-0.3c0.1-0.2,0.4-0.2,0.9-0.3h1.4v3.8H90.2z
	 M95.5,15.3c0,0.9,0,1.6,0,2c0,0.3-0.1,0.4-0.3,0.5c-0.1,0-0.2,0-0.3,0c-0.1,0-0.1,0-0.1,0.1S94.9,18,95,18c0.4,0,0.9,0,1.2,0
	c0.2,0,0.8,0,1.4,0c0.1,0,0.2,0,0.2-0.1c0,0,0-0.1-0.1-0.1s-0.3,0-0.5,0c-0.3,0-0.3-0.2-0.4-0.5c0-0.4,0-1.1,0-2v-1.6
	c0-1.4,0-1.7,0-2s0.1-0.5,0.3-0.5c0.1,0,0.2,0,0.3,0c0.1,0,0.1,0,0.1-0.1S97.4,11,97.3,11c-0.4,0-0.9,0-1.1,0c-0.3,0-0.8,0-1.2,0
	c-0.1,0-0.2,0-0.2,0.1s0.1,0.1,0.1,0.1c0.1,0,0.2,0,0.3,0c0.2,0,0.3,0.2,0.3,0.5s0,0.6,0,2C95.5,13.7,95.5,15.3,95.5,15.3z
	 M102.3,18.1c2.3,0,3.8-1.7,3.8-3.8s-1.4-3.4-3.7-3.4c-2.8,0-3.8,2-3.8,3.6C98.6,16.1,99.6,18.1,102.3,18.1z M102.7,17.6
	c-1.8,0-2.8-1.5-2.8-3.4c0-2.3,1.2-2.9,2.3-2.9c1.5,0,2.7,1.3,2.7,3.3C104.8,17.3,103.3,17.6,102.7,17.6z M108.4,12.9L108.4,12.9
	c0.2,0.2,1.2,1.3,2.2,2.3c1,0.9,2.1,2.2,2.7,2.7c0.1,0.1,0.2,0.2,0.3,0.2c0.1,0,0.1-0.1,0.1-0.3l0.1-5.8c0-0.5,0.1-0.7,0.3-0.8
	c0.1,0,0.2,0,0.3,0c0.1,0,0.2,0,0.2-0.1s-0.1-0.1-0.2-0.1c-0.5,0-0.8,0-0.9,0c-0.2,0-0.6,0-1.1,0c-0.1,0-0.2,0-0.2,0.1
	s0,0.1,0.1,0.1s0.4,0,0.5,0.1c0.2,0.1,0.3,0.3,0.3,0.8l0.1,4.1l0,0c-0.2-0.1-1.4-1.5-2-2.1c-1.3-1.3-2.7-2.8-2.9-2.9
	c-0.2-0.2-0.2-0.3-0.3-0.3c-0.1,0-0.1,0.1-0.1,0.3l-0.1,5.4c0,0.8,0,1.1-0.3,1.1c-0.1,0-0.3,0-0.4,0s-0.1,0-0.1,0.1s0.1,0.1,0.2,0.1
	c0.5,0,0.9,0,1,0c0.2,0,0.5,0,1.1,0c0.1,0,0.2,0,0.2-0.1s-0.1-0.1-0.2-0.1s-0.3,0-0.5-0.1s-0.3-0.3-0.3-1L108.4,12.9z M117.6,18.1
	c0.5,0,1-0.1,1.5-0.4c0.7-0.4,0.9-1.1,0.9-1.6c0-0.9-0.4-1.5-1.5-2.4l-0.3-0.2c-0.8-0.6-1-0.9-1-1.3c0-0.6,0.4-0.9,1.1-0.9
	c0.6,0,0.9,0.3,1,0.5c0.2,0.2,0.2,0.5,0.2,0.6s0,0.2,0.1,0.2s0.1-0.1,0.1-0.3c0-0.7,0-1,0-1.1s0-0.1-0.1-0.1
	c-0.2-0.1-0.6-0.2-1.2-0.2c-1.3,0-2.1,0.7-2.1,1.7c0,0.7,0.4,1.4,1.4,2.2l0.4,0.3c0.8,0.6,0.9,1,0.9,1.5s-0.4,1.1-1.2,1.1
	c-0.6,0-1.1-0.2-1.3-0.9c0-0.2-0.1-0.4-0.1-0.5s0-0.2-0.1-0.2s-0.1,0.1-0.1,0.2s0,0.7,0,1.2c0,0.2,0,0.2,0.2,0.3
	C116.6,18,117.1,18.1,117.6,18.1z"/>
</svg>
