<svg height="512" viewBox="0 0 54 60" width="512" xmlns="http://www.w3.org/2000/svg"><g id="Page-1" fill="none" fill-rule="evenodd"><g id="003---Safe" fill-rule="nonzero"><rect id="Rectangle-path" fill="#ffdc00" height="52" rx="4" width="51.83" x="1.17" y="1"/><path id="Shape" d="m49 1h-3c2.209139 0 4 1.790861 4 4v44c0 2.209139-1.790861 4-4 4h3c2.209139 0 4-1.790861 4-4v-44c0-2.209139-1.790861-4-4-4z" fill="#fec108"/><path id="Shape" d="m21 53v3c0 1.6568542-1.3431458 3-3 3h-9.83c-1.65685425 0-3-1.3431458-3-3v-3z" fill="#607d8b"/><path id="Shape" d="m18 53v3c0 1.6568542-1.3431458 3-3 3h3c1.6568542 0 3-1.3431458 3-3v-3z" fill="#37474f"/><path id="Shape" d="m48.83 53v3c0 1.6568542-1.3431458 3-3 3h-9.83c-1.6568542 0-3-1.3431458-3-3v-3z" fill="#607d8b"/><path id="Shape" d="m45.83 53v3c0 1.6568542-1.3431458 3-3 3h3c1.6568542 0 3-1.3431458 3-3v-3z" fill="#37474f"/><path id="Shape" d="m43 14v6c.0032948 1.1032019.8967981 1.9967052 2 2h1v10h-1c-1.1032019.0032948-1.9967052.8967981-2 2v6c.0032948 1.1032019.8967981 1.9967052 2 2h1v2c-.0032948 1.1032019-.8967981 1.9967052-2 2h-34c-1.10320187-.0032948-1.9967052-.8967981-2-2v-34c.0032948-1.10320187.89679813-1.9967052 2-2h34c1.1032019.0032948 1.9967052.89679813 2 2v2h-1c-1.1032019.0032948-1.9967052.8967981-2 2z" fill="#ff9801"/><path id="Shape" d="m45 12h1v-2c-.0032948-1.10320187-.8967981-1.9967052-2-2h-3c1.1032019.0032948 1.9967052.89679813 2 2v2h-1c-1.1032019.0032948-1.9967052.8967981-2 2v6c.0032948 1.1032019.8967981 1.9967052 2 2h1v10h-1c-1.1032019.0032948-1.9967052.8967981-2 2v6c.0032948 1.1032019.8967981 1.9967052 2 2h1v2c-.0032948 1.1032019-.8967981 1.9967052-2 2h3c1.1032019-.0032948 1.9967052-.8967981 2-2v-2h-1c-1.1032019-.0032948-1.9967052-.8967981-2-2v-6c.0032948-1.1032019.8967981-1.9967052 2-2h1v-10h-1c-1.1032019-.0032948-1.9967052-.8967981-2-2v-6c.0032948-1.1032019.8967981-1.9967052 2-2z" fill="#f57c00"/><circle id="Oval" cx="27" cy="27" fill="#02a9f4" r="11"/><path id="Shape" d="m37.163 22.79c-1.9181591-4.6178483-6.7096067-7.3609243-11.663-6.677 5.4547494.7297713 9.5274675 5.3836504 9.5274675 10.887s-4.0727181 10.1572287-9.5274675 10.887c3.9062937.5477861 7.8064022-1.040879 10.2181132-4.1622329 2.411711-3.121354 2.9647305-7.2961441 1.4488868-10.9377671z" fill="#0377bc"/><circle id="Oval" cx="27" cy="27" fill="#0377bc" r="5"/><rect id="Rectangle-path" fill="#cfd8dc" height="10" rx="2" width="6" x="43" y="12"/><path id="Shape" d="m47 12h-2c-.1691076.0019093-.3372244.0261181-.5.072.8799839.2272021 1.4961391 1.0191669 1.5 1.928v6c-.0038609.9088331-.6200161 1.7007979-1.5 1.928.1627756.0458819.3308924.0700907.5.072h2c1.1032019-.0032948 1.9967052-.8967981 2-2v-6c-.0032948-1.1032019-.8967981-1.9967052-2-2z" fill="#9e9e9e"/><rect id="Rectangle-path" fill="#cfd8dc" height="10" rx="2" width="6" x="43" y="32"/><path id="Shape" d="m47 32h-2c-.1691076.0019093-.3372244.0261181-.5.072.8799839.2272021 1.4961391 1.0191669 1.5 1.928v6c-.0038609.9088331-.6200161 1.7007979-1.5 1.928.1627756.0458819.3308924.0700907.5.072h2c1.1032019-.0032948 1.9967052-.8967981 2-2v-6c-.0032948-1.1032019-.8967981-1.9967052-2-2z" fill="#9e9e9e"/><path id="Shape" d="m12 18c-.5522847 0-1-.4477153-1-1v-5c0-.5522847.4477153-1 1-1h5c.5522847 0 1 .4477153 1 1s-.4477153 1-1 1h-4v4c0 .5522847-.4477153 1-1 1z" fill="#f5f5f5"/><g fill="#000"><path id="Shape" d="m4.167 53.9v2.1c0 2.209139 1.790861 4 4 4h9.833c2.209139 0 4-1.790861 4-4v-2h10v2c0 2.209139 1.790861 4 4 4h9.833c2.209139 0 4-1.790861 4-4v-2.084c2.4006229-.4056024 4.1601215-2.4813632 4.167-4.916v-44c-.0033061-2.76005315-2.2399468-4.99669388-5-5h-43.83c-2.76005315.00330612-4.99669388 2.23994685-5 5v4c0 .55228475.44771525 1 1 1s1-.44771525 1-1v-4c0-1.65685425 1.34314575-3 3-3h43.83c1.6568542 0 3 1.34314575 3 3v44c0 1.6568542-1.3431458 3-3 3h-43.83c-1.65685425 0-3-1.3431458-3-3v-35c0-.5522847-.44771525-1-1-1s-1 .4477153-1 1v35c.00270418 2.3741829 1.67177561 4.42033 3.997 4.9zm43.666.1v2c0 1.1045695-.8954305 2-2 2h-9.833c-1.1045695 0-2-.8954305-2-2v-2zm-27.833 0v2c0 1.1045695-.8954305 2-2 2h-9.833c-1.1045695 0-2-.8954305-2-2v-2z"/><path id="Shape" d="m8 34c-.55228475 0-1 .4477153-1 1v9c0 1.6568542 1.34314575 3 3 3h34c1.6568542 0 3-1.3431458 3-3v-1c1.6568542 0 3-1.3431458 3-3v-6c0-1.6568542-1.3431458-3-3-3v-8c1.6568542 0 3-1.3431458 3-3v-6c0-1.6568542-1.3431458-3-3-3v-1c0-1.65685425-1.3431458-3-3-3h-34c-1.65685425 0-3 1.34314575-3 3v20c0 .5522847.44771525 1 1 1s1-.4477153 1-1v-20c0-.55228475.44771525-1 1-1h34c.5522847 0 1 .44771525 1 1v1c-1.6568542 0-3 1.3431458-3 3v6c0 1.6568542 1.3431458 3 3 3v8c-1.6568542 0-3 1.3431458-3 3v6c0 1.6568542 1.3431458 3 3 3v1c0 .5522847-.4477153 1-1 1h-34c-.55228475 0-1-.4477153-1-1v-9c0-.5522847-.44771525-1-1-1zm36-14v-6c0-.5522847.4477153-1 1-1h2c.5522847 0 1 .4477153 1 1v6c0 .5522847-.4477153 1-1 1h-2c-.5522847 0-1-.4477153-1-1zm0 20v-6c0-.5522847.4477153-1 1-1h2c.5522847 0 1 .4477153 1 1v6c0 .5522847-.4477153 1-1 1h-2c-.5522847 0-1-.4477153-1-1z"/><path id="Shape" d="m15.914 31.592c2.1907408 5.2891877 7.8126752 8.2942726 13.4276148 7.1774446s9.6590229-6.0445121 9.6590229-11.7694446-4.0440833-10.6526166-9.6590229-11.7694446-11.236874 1.8882569-13.4276148 7.1774446c-1.2275633 2.9382732-1.2275633 6.2457268 0 9.184zm6.354-13.4.364.878c.1316192.3376241.43559.5776264.7945371.6273323.358947.0497059.7166983-.0986631.9351117-.3878157.2184134-.2891527.2633091-.6738391.1173512-1.0055166l-.363-.878c1.8801281-.5719701 3.8878719-.5719701 5.768 0l-.363.878c-.1459579.3316775-.1010622.7163639.1173512 1.0055166.2184134.2891526.5761647.4375216.9351117.3878157.3589471-.0497059.6629179-.2897082.7945371-.6273323l.364-.879c1.7335895.925406 3.1530191 2.3451837 4.078 4.079l-.878.364c-.3376241.1316192-.5776264.43559-.6273323.7945371-.0497059.358947.0986631.7166983.3878157.9351117.2891527.2184134.6738391.2633091 1.0055166.1173512l.878-.363c.5719701 1.8801281.5719701 3.8878719 0 5.768l-.878-.363c-.3316775-.1459579-.7163639-.1010622-1.0055166.1173512-.2891526.2184134-.4375216.5761647-.3878157.9351117.0497059.3589471.2897082.6629179.6273323.7945371l.879.364c-.925406 1.7335895-2.3451837 3.1530191-4.079 4.078l-.364-.878c-.1316192-.3376241-.43559-.5776264-.7945371-.6273323-.358947-.0497059-.7166983.0986631-.9351117.3878157-.2184134.2891527-.2633091.6738391-.1173512 1.0055166l.363.878c-1.8801281.5719701-3.8878719.5719701-5.768 0l.363-.878c.1459579-.3316775.1010622-.7163639-.1173512-1.0055166-.2184134-.2891526-.5761647-.4375216-.9351117-.3878157-.3589471.0497059-.6629179.2897082-.7945371.6273323l-.364.879c-1.7335895-.925406-3.1530191-2.3451837-4.078-4.079l.878-.364c.3376241-.1316192.5776264-.43559.6273323-.7945371.0497059-.358947-.0986631-.7166983-.3878157-.9351117-.2891527-.2184134-.6738391-.2633091-1.0055166-.1173512l-.878.363c-.5719701-1.8801281-.5719701-3.8878719 0-5.768l.878.363c.3316775.1459579.7163639.1010622 1.0055166-.1173512.2891526-.2184134.4375216-.5761647.3878157-.9351117-.0497059-.3589471-.2897082-.6629179-.6273323-.7945371l-.879-.364c.9250887-1.7343296 2.3448972-3.1544862 4.079-4.08z"/><path id="Shape" d="m27.008 33c2.6423663-.0041118 4.970995-1.7363776 5.7346387-4.2659952.7636437-2.5296175-.217483-5.261036-2.4161892-6.726576-2.1987062-1.4655401-5.0973479-1.320168-7.1383913.3580032s-2.7439633 4.4940476-1.7310582 6.934568c.9329374 2.2415019 3.1230994 3.7013469 5.551 3.7zm-1.539-9.7c2.041162-.8420637 4.378567.1290647 5.2220746 2.1696304.8435077 2.0405657-.1259667 4.3786572-2.1659351 5.2236084-2.0399684.8449511-4.3787452-.1228687-5.2251395-2.1622388-.4100034-.9809201-.4115723-2.0849066-.0043586-3.0669881s1.1895312-1.7610346 2.1733586-2.1640119z"/></g></g></g></svg>