<?xml version="1.0" encoding="utf-8"?>
<!-- Generator: Adobe Illustrator 26.1.0, SVG Export Plug-In . SVG Version: 6.00 Build 0)  -->
<!DOCTYPE svg PUBLIC "-//W3C//DTD SVG 1.1//EN" "http://www.w3.org/Graphics/SVG/1.1/DTD/svg11.dtd" [
	<!ENTITY ns_extend "http://ns.adobe.com/Extensibility/1.0/">
	<!ENTITY ns_ai "http://ns.adobe.com/AdobeIllustrator/10.0/">
	<!ENTITY ns_graphs "http://ns.adobe.com/Graphs/1.0/">
	<!ENTITY ns_vars "http://ns.adobe.com/Variables/1.0/">
	<!ENTITY ns_imrep "http://ns.adobe.com/ImageReplacement/1.0/">
	<!ENTITY ns_sfw "http://ns.adobe.com/SaveForWeb/1.0/">
	<!ENTITY ns_custom "http://ns.adobe.com/GenericCustomNamespace/1.0/">
	<!ENTITY ns_adobe_xpath "http://ns.adobe.com/XPath/1.0/">
]>
<svg version="1.1" id="Layer_1" xmlns:x="&ns_extend;" xmlns:i="&ns_ai;" xmlns:graph="&ns_graphs;"
	 xmlns="http://www.w3.org/2000/svg" xmlns:xlink="http://www.w3.org/1999/xlink" x="0px" y="0px" width="314.9px" height="101.3px"
	 viewBox="0 0 314.9 101.3" style="enable-background:new 0 0 314.9 101.3;" xml:space="preserve">
<style type="text/css">
	.st0{fill:#01A64E;}
	.st1{fill:#2DABE2;}
	.st2{fill:#ED2027;}
	.st3{fill:#A91E22;}
	.st4{fill:#FFFFFF;}
</style>
<metadata>
	<sfw  xmlns="&ns_sfw;">
		<slices></slices>
		<sliceSourceBounds  bottomLeftOrigin="true" height="86.5" width="314.4" x="0" y="0.4"></sliceSourceBounds>
	</sfw>
</metadata>
<polygon class="st0" points="31.5,73.4 31.5,85.3 1.6,85.3 1.6,42.9 "/>
<polygon class="st1" points="31.5,0.4 1.6,0.4 1.6,31.3 "/>
<polygon class="st2" points="55,80.5 49.2,86.9 0,37.7 34.2,2 48.8,16.7 29.4,36.3 63.8,70.9 57.7,77.5 42.3,61.1 39.7,64.4 "/>
<polygon class="st3" points="73.3,60.5 66.3,68.1 49.8,51 66.3,34.4 82,51 75.9,57.6 62.2,42.9 59.7,45.5 "/>
<polygon class="st2" points="65.7,28.8 46.2,47.3 35.1,35.3 67.4,2 97.5,34.2 84.7,48.3 "/>
<g>
	<path class="st4" d="M105.3,28.1c0,0-0.1-0.1-0.1-0.2V14.7c0-0.1,0-0.1,0.1-0.2c0,0,0.1-0.1,0.2-0.1h2.8c0.1,0,0.1,0,0.2,0.1
		c0,0,0.1,0.1,0.1,0.2v5.1v0.1h0.1l3.9-5.2c0.1-0.1,0.2-0.1,0.3-0.1h3.2c0.1,0,0.2,0,0.2,0.1c0,0,0,0.1-0.1,0.2l-4.2,5.6
		c0,0.1,0,0.1,0,0.1l4.4,7.3c0,0.1,0,0.1,0,0.1c0,0.1-0.1,0.1-0.2,0.1H113c-0.1,0-0.2-0.1-0.3-0.2l-3.1-5.2c0-0.1-0.1-0.1-0.1,0
		l-1,1.4c0,0.1,0,0.1,0,0.1v3.6c0,0.1,0,0.1-0.1,0.2c0,0-0.1,0.1-0.2,0.1L105.3,28.1C105.4,28.2,105.4,28.1,105.3,28.1z"/>
	<path class="st4" d="M123.3,18.1c0,0,0.1-0.1,0.2-0.1h2.8c0.1,0,0.1,0,0.2,0.1c0,0,0.1,0.1,0.1,0.2v9.6c0,0.1,0,0.1-0.1,0.2
		c0,0-0.1,0.1-0.2,0.1h-2.8c-0.1,0-0.1,0-0.2-0.1c0,0-0.1-0.1-0.1-0.2v-0.7v-0.1h-0.1c-0.5,0.7-1.3,1.1-2.5,1.1
		c-1,0-1.8-0.3-2.4-0.9s-0.9-1.5-0.9-2.6v-6.5c0-0.1,0-0.1,0.1-0.2c0,0,0.1-0.1,0.2-0.1h2.8c0.1,0,0.1,0,0.2,0.1
		c0,0,0.1,0.1,0.1,0.2V24c0,0.5,0.1,0.8,0.4,1.1c0.2,0.3,0.6,0.4,1,0.4s0.7-0.1,0.9-0.3c0.2-0.2,0.4-0.5,0.4-0.9v-6
		C123.2,18.2,123.3,18.2,123.3,18.1z"/>
	<path class="st4" d="M136.3,18.9c0.6,0.6,1,1.5,1,2.6v6.4c0,0.1,0,0.1-0.1,0.2c0,0-0.1,0.1-0.2,0.1h-2.8c-0.1,0-0.1,0-0.2-0.1
		c0,0-0.1-0.1-0.1-0.2v-5.7c0-0.4-0.1-0.8-0.4-1.1s-0.6-0.4-1-0.4s-0.7,0.1-1,0.4c-0.2,0.3-0.4,0.6-0.4,1.1v5.7c0,0.1,0,0.1-0.1,0.2
		c0,0-0.1,0.1-0.2,0.1H128c-0.1,0-0.1,0-0.2-0.1c0,0-0.1-0.1-0.1-0.2v-9.6c0-0.1,0-0.1,0.1-0.2c0,0,0.1-0.1,0.2-0.1h2.8
		c0.1,0,0.1,0,0.2,0.1c0,0,0.1,0.1,0.1,0.2V19c0,0.1,0,0.1,0,0.1s0,0,0.1,0c0.5-0.8,1.3-1.2,2.3-1.2
		C134.8,17.9,135.6,18.2,136.3,18.9z"/>
	<path class="st4" d="M147,18.9c0.6,0.6,1,1.5,1,2.6v6.4c0,0.1,0,0.1-0.1,0.2c0,0-0.1,0.1-0.2,0.1H145c-0.1,0-0.1,0-0.2-0.1
		c0,0-0.1-0.1-0.1-0.2v-5.7c0-0.4-0.1-0.8-0.4-1.1s-0.6-0.4-1-0.4s-0.7,0.1-1,0.4c-0.2,0.3-0.4,0.6-0.4,1.1v5.7c0,0.1,0,0.1-0.1,0.2
		c0,0-0.1,0.1-0.2,0.1h-2.8c-0.1,0-0.1,0-0.2-0.1c0,0-0.1-0.1-0.1-0.2V14.7c0-0.1,0-0.1,0.1-0.2c0,0,0.1-0.1,0.2-0.1h2.8
		c0.1,0,0.1,0,0.2,0.1c0,0,0.1,0.1,0.1,0.2V19c0,0.1,0,0.1,0,0.1s0,0,0.1,0c0.5-0.8,1.3-1.2,2.3-1.2C145.5,17.9,146.4,18.2,147,18.9
		z"/>
	<path class="st4" d="M150,16.7c-0.3-0.3-0.5-0.7-0.5-1.2c0-0.5,0.2-0.9,0.5-1.2s0.7-0.5,1.2-0.5s0.9,0.2,1.2,0.5s0.5,0.7,0.5,1.2
		c0,0.5-0.2,0.9-0.5,1.2s-0.7,0.5-1.2,0.5S150.3,17,150,16.7z M149.7,28.1c0,0-0.1-0.1-0.1-0.2v-9.6c0-0.1,0-0.1,0.1-0.2
		c0,0,0.1-0.1,0.2-0.1h2.8c0.1,0,0.1,0,0.2,0.1c0,0,0.1,0.1,0.1,0.2v9.6c0,0.1,0,0.1-0.1,0.2c0,0-0.1,0.1-0.2,0.1h-2.8
		C149.8,28.2,149.7,28.1,149.7,28.1z"/>
	<path class="st4" d="M168.5,18.9c0.6,0.6,0.9,1.5,0.9,2.6v6.4c0,0.1,0,0.1-0.1,0.2c0,0-0.1,0.1-0.2,0.1h-2.8c-0.1,0-0.1,0-0.2-0.1
		c0,0-0.1-0.1-0.1-0.2v-5.7c0-0.4-0.1-0.8-0.3-1.1c-0.2-0.3-0.5-0.4-0.9-0.4s-0.7,0.1-0.9,0.4s-0.4,0.6-0.4,1.1v5.7
		c0,0.1,0,0.1-0.1,0.2c0,0-0.1,0.1-0.2,0.1h-2.8c-0.1,0-0.1,0-0.2-0.1c0,0-0.1-0.1-0.1-0.2v-5.7c0-0.4-0.1-0.8-0.4-1.1
		c-0.2-0.3-0.5-0.4-0.9-0.4s-0.6,0.1-0.9,0.3s-0.4,0.5-0.4,0.9v6c0,0.1,0,0.1-0.1,0.2c0,0-0.1,0.1-0.2,0.1h-2.8
		c-0.1,0-0.1,0-0.2-0.1c0,0-0.1-0.1-0.1-0.2v-9.6c0-0.1,0-0.1,0.1-0.2c0,0,0.1-0.1,0.2-0.1h2.8c0.1,0,0.1,0,0.2,0.1
		c0,0,0.1,0.1,0.1,0.2v0.9c0,0.1,0,0.1,0,0.1s0.1,0,0.1-0.1c0.5-0.9,1.3-1.3,2.5-1.3c0.7,0,1.2,0.1,1.7,0.4s0.9,0.7,1.1,1.2
		c0,0.1,0.1,0.1,0.1,0c0.3-0.6,0.6-1,1.1-1.2c0.5-0.3,1-0.4,1.6-0.4C167.1,17.9,167.9,18.2,168.5,18.9z"/>
	<path class="st4" d="M177.5,18.4c0.7,0.3,1.3,0.7,1.7,1.2s0.6,1.1,0.6,1.7v6.6c0,0.1,0,0.1-0.1,0.2c0,0-0.1,0.1-0.2,0.1h-2.8
		c-0.1,0-0.1,0-0.2-0.1c0,0-0.1-0.1-0.1-0.2v-0.7c0-0.1,0-0.1,0-0.1s-0.1,0-0.1,0.1c-0.5,0.7-1.3,1.1-2.5,1.1c-1,0-1.9-0.2-2.5-0.7
		s-0.9-1.2-0.9-2.2s0.3-1.8,1-2.3s1.7-0.8,3-0.8h1.9c0.1,0,0.1,0,0.1-0.1v-0.4c0-0.4-0.1-0.6-0.4-0.8c-0.2-0.2-0.6-0.3-1-0.3
		c-0.3,0-0.6,0.1-0.8,0.2s-0.4,0.3-0.4,0.4c-0.1,0.1-0.2,0.2-0.3,0.2l-2.8-0.4c-0.2,0-0.2-0.1-0.2-0.2c0.1-0.6,0.3-1.1,0.7-1.6
		s0.9-0.8,1.6-1.1s1.4-0.4,2.2-0.4C176,17.9,176.8,18.1,177.5,18.4z M176,25.6c0.3-0.3,0.5-0.6,0.5-1v-0.5c0-0.1,0-0.1-0.1-0.1h-1.2
		c-0.5,0-0.9,0.1-1.1,0.3s-0.4,0.4-0.4,0.8c0,0.3,0.1,0.5,0.3,0.7s0.5,0.3,0.8,0.3C175.3,26,175.7,25.9,176,25.6z"/>
	<path class="st4" d="M189.5,18.9c0.7,0.6,1,1.5,1,2.6v6.4c0,0.1,0,0.1-0.1,0.2c0,0-0.1,0.1-0.2,0.1h-2.8c-0.1,0-0.1,0-0.2-0.1
		c0,0-0.1-0.1-0.1-0.2v-5.7c0-0.4-0.1-0.8-0.4-1.1s-0.6-0.4-1-0.4s-0.7,0.1-1,0.4c-0.2,0.3-0.4,0.6-0.4,1.1v5.7c0,0.1,0,0.1-0.1,0.2
		c0,0-0.1,0.1-0.2,0.1h-2.8c-0.1,0-0.1,0-0.2-0.1c0,0-0.1-0.1-0.1-0.2v-9.6c0-0.1,0-0.1,0.1-0.2c0,0,0.1-0.1,0.2-0.1h2.8
		c0.1,0,0.1,0,0.2,0.1c0,0,0.1,0.1,0.1,0.2V19c0,0.1,0,0.1,0,0.1s0,0,0.1,0c0.5-0.8,1.3-1.2,2.3-1.2C188,17.9,188.8,18.2,189.5,18.9
		z"/>
	<path class="st4" d="M198.2,18.1c0,0,0.1-0.1,0.2-0.1h2.8c0.1,0,0.1,0,0.2,0.1c0,0,0.1,0.1,0.1,0.2V27c0,1.8-0.5,3.1-1.5,3.8
		c-1,0.8-2.3,1.2-3.9,1.2c-0.6,0-1.2-0.1-1.9-0.2c-0.1,0-0.2-0.1-0.2-0.3l0.1-2.4c0-0.1,0-0.2,0.1-0.2s0.1,0,0.2,0
		c0.5,0.1,1,0.2,1.5,0.2c0.7,0,1.3-0.2,1.8-0.5s0.6-0.9,0.6-1.6l-0.1,0.1c-0.5,0.5-1.1,0.7-2,0.7s-1.6-0.2-2.4-0.6
		c-0.7-0.4-1.2-1-1.5-2c-0.2-0.6-0.3-1.4-0.3-2.3c0-1,0.1-1.8,0.4-2.5c0.3-0.8,0.8-1.4,1.4-1.9c0.7-0.5,1.4-0.7,2.3-0.7
		c0.9,0,1.7,0.3,2.2,0.9h0.1c0,0,0,0,0-0.1v-0.4C198.2,18.2,198.2,18.2,198.2,18.1z M198.2,23c0-0.4,0-0.6,0-0.8
		c0-0.2-0.1-0.4-0.2-0.6c-0.1-0.3-0.3-0.5-0.5-0.7s-0.5-0.2-0.8-0.2c-0.6,0-1,0.3-1.3,0.9c-0.2,0.4-0.3,0.8-0.3,1.4s0.1,1.1,0.3,1.4
		c0.1,0.3,0.3,0.5,0.5,0.7s0.5,0.3,0.8,0.3c0.7,0,1.1-0.3,1.3-0.9C198.1,24.2,198.2,23.7,198.2,23z"/>
	<path class="st4" d="M209.6,18.4c0.7,0.3,1.3,0.7,1.7,1.2s0.6,1.1,0.6,1.7v6.6c0,0.1,0,0.1-0.1,0.2c0,0-0.1,0.1-0.2,0.1h-2.8
		c-0.1,0-0.1,0-0.2-0.1c0,0-0.1-0.1-0.1-0.2v-0.7c0-0.1,0-0.1,0-0.1s-0.1,0-0.1,0.1c-0.5,0.7-1.3,1.1-2.5,1.1c-1,0-1.9-0.2-2.5-0.7
		s-0.9-1.2-0.9-2.2s0.3-1.8,1-2.3s1.7-0.8,3-0.8h1.9c0.1,0,0.1,0,0.1-0.1v-0.4c0-0.4-0.1-0.6-0.4-0.8c-0.2-0.2-0.6-0.3-1-0.3
		c-0.3,0-0.6,0.1-0.8,0.2s-0.4,0.3-0.4,0.4c-0.1,0.1-0.2,0.2-0.3,0.2l-2.8-0.4c-0.2,0-0.2-0.1-0.2-0.2c0.1-0.6,0.3-1.1,0.7-1.6
		s0.9-0.8,1.6-1.1c0.7-0.3,1.4-0.4,2.2-0.4C208.1,17.9,208.9,18.1,209.6,18.4z M208.1,25.6c0.3-0.3,0.5-0.6,0.5-1v-0.5
		c0-0.1,0-0.1-0.1-0.1h-1.2c-0.5,0-0.9,0.1-1.1,0.3c-0.3,0.2-0.4,0.4-0.4,0.8c0,0.3,0.1,0.5,0.3,0.7s0.5,0.3,0.8,0.3
		C207.4,26,207.8,25.9,208.1,25.6z"/>
	<path class="st4" d="M213.5,28.1c0,0-0.1-0.1-0.1-0.2V14.7c0-0.1,0-0.1,0.1-0.2c0,0,0.1-0.1,0.2-0.1h2.8c0.1,0,0.1,0,0.2,0.1
		c0,0,0.1,0.1,0.1,0.2v13.2c0,0.1,0,0.1-0.1,0.2c0,0-0.1,0.1-0.2,0.1h-2.8C213.6,28.2,213.6,28.1,213.5,28.1z"/>
	<path class="st4" d="M224.9,18.4c0.7,0.3,1.3,0.7,1.7,1.2s0.6,1.1,0.6,1.7v6.6c0,0.1,0,0.1-0.1,0.2c0,0-0.1,0.1-0.2,0.1h-2.8
		c-0.1,0-0.1,0-0.2-0.1c0,0-0.1-0.1-0.1-0.2v-0.7c0-0.1,0-0.1,0-0.1s-0.1,0-0.1,0.1c-0.5,0.7-1.3,1.1-2.5,1.1c-1,0-1.9-0.2-2.5-0.7
		s-0.9-1.2-0.9-2.2s0.3-1.8,1-2.3s1.7-0.8,3-0.8h1.9c0.1,0,0.1,0,0.1-0.1v-0.4c0-0.4-0.1-0.6-0.4-0.8s-0.6-0.3-1-0.3
		c-0.3,0-0.6,0.1-0.8,0.2s-0.4,0.3-0.4,0.4c-0.1,0.1-0.2,0.2-0.3,0.2l-2.8-0.4c-0.2,0-0.2-0.1-0.2-0.2c0.1-0.6,0.3-1.1,0.7-1.6
		s0.9-0.8,1.6-1.1s1.4-0.4,2.2-0.4C223.4,17.9,224.2,18.1,224.9,18.4z M223.4,25.6c0.3-0.3,0.5-0.6,0.5-1v-0.5c0-0.1,0-0.1-0.1-0.1
		h-1.2c-0.5,0-0.9,0.1-1.1,0.3c-0.3,0.2-0.4,0.4-0.4,0.8c0,0.3,0.1,0.5,0.3,0.7s0.5,0.3,0.8,0.3C222.7,26,223.1,25.9,223.4,25.6z"/>
	<path class="st4" d="M242.7,18.9c0.6,0.6,0.9,1.5,0.9,2.6v6.4c0,0.1,0,0.1-0.1,0.2c0,0-0.1,0.1-0.2,0.1h-2.8c-0.1,0-0.1,0-0.2-0.1
		c0,0-0.1-0.1-0.1-0.2v-5.7c0-0.4-0.1-0.8-0.3-1.1c-0.2-0.3-0.5-0.4-0.9-0.4s-0.7,0.1-0.9,0.4s-0.4,0.6-0.4,1.1v5.7
		c0,0.1,0,0.1-0.1,0.2c0,0-0.1,0.1-0.2,0.1h-2.8c-0.1,0-0.1,0-0.2-0.1c0,0-0.1-0.1-0.1-0.2v-5.7c0-0.4-0.1-0.8-0.4-1.1
		c-0.2-0.3-0.5-0.4-0.9-0.4s-0.6,0.1-0.9,0.3c-0.2,0.2-0.4,0.5-0.4,0.9v6c0,0.1,0,0.1-0.1,0.2c0,0-0.1,0.1-0.2,0.1H229
		c-0.1,0-0.1,0-0.2-0.1c0,0-0.1-0.1-0.1-0.2v-9.6c0-0.1,0-0.1,0.1-0.2c0,0,0.1-0.1,0.2-0.1h2.8c0.1,0,0.1,0,0.2,0.1
		c0,0,0.1,0.1,0.1,0.2v0.9c0,0.1,0,0.1,0,0.1s0.1,0,0.1-0.1c0.5-0.9,1.3-1.3,2.5-1.3c0.7,0,1.2,0.1,1.7,0.4s0.9,0.7,1.1,1.2
		c0,0.1,0.1,0.1,0.1,0c0.3-0.6,0.6-1,1.1-1.2c0.5-0.3,1-0.4,1.6-0.4C241.3,17.9,242.1,18.2,242.7,18.9z"/>
	<path class="st4" d="M251.3,27.8c-0.8-0.3-1.4-0.8-1.9-1.5s-0.7-1.4-0.7-2.2v-0.4c0-0.1,0-0.1,0.1-0.2c0,0,0.1-0.1,0.2-0.1h2.7
		c0.1,0,0.1,0,0.2,0.1c0,0,0.1,0.1,0.1,0.2v0.2c0,0.4,0.2,0.8,0.6,1.1c0.4,0.3,1,0.5,1.7,0.5c0.6,0,1-0.1,1.3-0.4
		c0.3-0.2,0.4-0.5,0.4-0.9c0-0.3-0.1-0.5-0.2-0.6c-0.2-0.2-0.4-0.3-0.7-0.4s-0.7-0.3-1.3-0.5c-0.1,0-0.2-0.1-0.2-0.1s-0.1,0-0.2-0.1
		c-0.8-0.3-1.6-0.6-2.2-0.9c-0.6-0.3-1.2-0.8-1.6-1.3c-0.4-0.6-0.7-1.3-0.7-2.1c0-0.8,0.2-1.5,0.6-2.1c0.4-0.6,1-1.1,1.8-1.4
		s1.6-0.5,2.6-0.5s1.9,0.2,2.7,0.5c0.8,0.4,1.4,0.9,1.9,1.5s0.7,1.4,0.7,2.3V19c0,0.1,0,0.1-0.1,0.2s-0.1,0.1-0.2,0.1h-2.7
		c-0.1,0-0.1,0-0.2-0.1s0-0.1,0-0.2v-0.1c0-0.5-0.2-0.9-0.6-1.2c-0.4-0.4-0.9-0.5-1.6-0.5c-0.5,0-0.9,0.1-1.2,0.3
		c-0.3,0.2-0.4,0.5-0.4,0.9c0,0.3,0.1,0.5,0.3,0.7s0.5,0.4,0.8,0.5c0.4,0.2,1,0.4,1.8,0.6c0.9,0.3,1.6,0.6,2.1,0.8
		c0.5,0.2,1,0.6,1.4,1.1s0.7,1.2,0.7,2.1c0,0.8-0.2,1.6-0.6,2.2s-1,1.1-1.8,1.4s-1.7,0.5-2.7,0.5C253,28.3,252.1,28.1,251.3,27.8z"
		/>
	<path class="st4" d="M270.1,23.8c0,0.2-0.1,0.2-0.3,0.2h-5.9h-0.1c0,0,0,0,0,0.1s0.1,0.3,0.2,0.6c0.2,0.3,0.4,0.5,0.7,0.7
		c0.3,0.2,0.7,0.3,1.2,0.3c0.8,0,1.5-0.3,1.9-0.8c0.1-0.1,0.1-0.1,0.2-0.1s0.1,0,0.2,0.1l1.5,1.7c0.1,0,0.1,0.1,0.1,0.2
		s0,0.1-0.1,0.2c-0.5,0.5-1,0.9-1.7,1.1c-0.7,0.3-1.4,0.4-2.2,0.4c-1.2,0-2.2-0.3-3-0.8s-1.4-1.2-1.8-2.2c-0.3-0.7-0.4-1.5-0.4-2.4
		c0-0.7,0.1-1.3,0.3-2c0.3-1,0.9-1.7,1.7-2.3c0.8-0.6,1.7-0.8,2.8-0.8c0.9,0,1.6,0.2,2.3,0.6s1.2,0.9,1.6,1.5
		c0.4,0.7,0.7,1.4,0.8,2.2C270.1,22.6,270.1,23.1,270.1,23.8z M263.9,21.6c-0.1,0.1-0.1,0.3-0.1,0.4s0,0.1,0.1,0.1h2.8
		c0.1,0,0.1,0,0.1-0.1s0-0.2-0.1-0.4c-0.1-0.3-0.3-0.6-0.5-0.7c-0.2-0.2-0.5-0.3-0.9-0.3C264.6,20.7,264.1,21,263.9,21.6z"/>
	<path class="st4" d="M277.9,18.2c0.1,0.1,0.1,0.2,0.1,0.3l-0.4,2.7c0,0.2-0.1,0.2-0.3,0.1c-0.2-0.1-0.5-0.1-0.7-0.1s-0.4,0-0.5,0
		c-0.4,0.1-0.7,0.2-1,0.5s-0.4,0.6-0.4,1v5.1c0,0.1,0,0.1-0.1,0.2c0,0-0.1,0.1-0.2,0.1h-2.8c-0.1,0-0.1,0-0.2-0.1
		c0,0-0.1-0.1-0.1-0.2v-9.6c0-0.1,0-0.1,0.1-0.2c0,0,0.1-0.1,0.2-0.1h2.8c0.1,0,0.1,0,0.2,0.1c0,0,0.1,0.1,0.1,0.2v0.6v0.1
		c0,0,0,0,0.1,0c0.5-0.7,1.2-1,2-1C277.3,17.9,277.6,18,277.9,18.2z"/>
	<path class="st4" d="M281.8,28l-3.1-9.6v-0.1c0-0.1,0.1-0.2,0.2-0.2h3c0.1,0,0.2,0.1,0.3,0.2l1.3,5.4c0,0,0,0.1,0.1,0.1
		c0,0,0,0,0.1-0.1l1.3-5.4c0-0.1,0.1-0.2,0.3-0.2h3c0.1,0,0.1,0,0.2,0.1c0,0,0,0.1,0,0.2l-3,9.6c0,0.1-0.1,0.2-0.3,0.2H282
		C281.9,28.2,281.8,28.1,281.8,28z"/>
	<path class="st4" d="M290,16.7c-0.3-0.3-0.5-0.7-0.5-1.2c0-0.5,0.2-0.9,0.5-1.2s0.7-0.5,1.2-0.5s0.9,0.2,1.2,0.5
		c0.3,0.3,0.5,0.7,0.5,1.2c0,0.5-0.2,0.9-0.5,1.2s-0.7,0.5-1.2,0.5S290.4,17,290,16.7z M289.7,28.1c0,0-0.1-0.1-0.1-0.2v-9.6
		c0-0.1,0-0.1,0.1-0.2c0,0,0.1-0.1,0.2-0.1h2.8c0.1,0,0.1,0,0.2,0.1c0,0,0.1,0.1,0.1,0.2v9.6c0,0.1,0,0.1-0.1,0.2
		c0,0-0.1,0.1-0.2,0.1h-2.8C289.8,28.2,289.7,28.1,289.7,28.1z"/>
	<path class="st4" d="M296.4,27.5c-0.8-0.5-1.4-1.3-1.7-2.2c-0.2-0.6-0.4-1.4-0.4-2.2c0-0.9,0.1-1.6,0.4-2.2
		c0.3-0.9,0.9-1.6,1.7-2.1c0.8-0.5,1.7-0.8,2.8-0.8c1.1,0,2,0.3,2.8,0.8s1.4,1.2,1.7,2c0.1,0.2,0.1,0.5,0.2,0.8
		c0,0.1-0.1,0.2-0.2,0.3l-2.7,0.4l0,0c-0.1,0-0.2-0.1-0.2-0.2v-0.2c0-0.1-0.1-0.2-0.1-0.3c-0.1-0.2-0.3-0.4-0.5-0.6
		s-0.5-0.2-0.8-0.2c-0.7,0-1.1,0.3-1.4,0.9c-0.1,0.4-0.2,0.9-0.2,1.5s0.1,1,0.2,1.5c0.2,0.7,0.7,1,1.4,1c0.3,0,0.6-0.1,0.9-0.3
		c0.2-0.2,0.4-0.4,0.5-0.8v-0.1c0,0,0,0,0-0.1c0-0.2,0.1-0.2,0.3-0.2l2.7,0.4c0.1,0,0.2,0.1,0.2,0.2c0,0.2,0,0.4-0.1,0.6
		c-0.3,0.9-0.9,1.6-1.7,2.1s-1.8,0.8-2.8,0.8C298.1,28.3,297.2,28,296.4,27.5z"/>
	<path class="st4" d="M314.4,23.8c0,0.2-0.1,0.2-0.3,0.2h-5.9h-0.1c0,0,0,0,0,0.1s0.1,0.3,0.2,0.6c0.2,0.3,0.4,0.5,0.7,0.7
		c0.3,0.2,0.7,0.3,1.2,0.3c0.8,0,1.5-0.3,1.9-0.8c0.1-0.1,0.1-0.1,0.2-0.1s0.1,0,0.2,0.1l1.5,1.7c0.1,0,0.1,0.1,0.1,0.2
		s0,0.1-0.1,0.2c-0.5,0.5-1,0.9-1.7,1.1c-0.7,0.3-1.4,0.4-2.2,0.4c-1.2,0-2.2-0.3-3-0.8s-1.4-1.2-1.8-2.2c-0.3-0.7-0.4-1.5-0.4-2.4
		c0-0.7,0.1-1.3,0.3-2c0.3-1,0.9-1.7,1.7-2.3c0.8-0.6,1.7-0.8,2.8-0.8c0.9,0,1.6,0.2,2.3,0.6s1.2,0.9,1.6,1.5
		c0.4,0.7,0.7,1.4,0.8,2.2C314.4,22.6,314.4,23.1,314.4,23.8z M308.2,21.6c-0.1,0.1-0.1,0.3-0.1,0.4s0,0.1,0.1,0.1h2.8
		c0.1,0,0.1,0,0.1-0.1s0-0.2-0.1-0.4c-0.1-0.3-0.3-0.6-0.5-0.7c-0.2-0.2-0.5-0.3-0.9-0.3C308.9,20.7,308.4,21,308.2,21.6z"/>
	<path class="st4" d="M131.9,50.7c-0.8-0.4-1.4-1-1.8-1.7c-0.4-0.7-0.7-1.6-0.7-2.6v-4.2c0-1,0.2-1.8,0.7-2.5s1-1.3,1.8-1.7
		s1.7-0.6,2.7-0.6s2,0.2,2.7,0.6s1.4,0.9,1.8,1.6s0.7,1.5,0.7,2.4c0,0.1,0,0.1-0.1,0.2s-0.1,0.1-0.2,0.1l-2.8,0.2
		c-0.2,0-0.2-0.1-0.2-0.2c0-0.6-0.2-1.1-0.5-1.5c-0.4-0.4-0.8-0.5-1.4-0.5c-0.6,0-1.1,0.2-1.4,0.6c-0.4,0.4-0.5,0.9-0.5,1.5v4.4
		c0,0.6,0.2,1.1,0.5,1.4c0.4,0.4,0.8,0.5,1.4,0.5c0.6,0,1.1-0.2,1.4-0.5c0.4-0.4,0.5-0.8,0.5-1.4c0-0.1,0.1-0.2,0.2-0.2l2.8,0.1
		c0.1,0,0.1,0,0.2,0.1s0.1,0.1,0.1,0.1c0,0.9-0.2,1.7-0.7,2.4c-0.4,0.7-1,1.2-1.8,1.6c-0.8,0.4-1.7,0.6-2.7,0.6
		S132.7,51.1,131.9,50.7z"/>
	<path class="st4" d="M143,50.4c-0.8-0.6-1.4-1.5-1.6-2.5c-0.2-0.5-0.2-1.1-0.2-1.8s0.1-1.3,0.3-1.9c0.3-1,0.9-1.8,1.7-2.4
		c0.8-0.6,1.8-0.9,3-0.9c1.1,0,2.1,0.3,2.9,0.9c0.8,0.6,1.3,1.4,1.7,2.4c0.2,0.6,0.3,1.2,0.3,1.9c0,0.6-0.1,1.2-0.2,1.7
		c-0.3,1.1-0.8,2-1.6,2.6s-1.8,1-3,1C144.8,51.3,143.8,51,143,50.4z M146.9,48.2c0.2-0.2,0.4-0.6,0.5-1c0.1-0.3,0.1-0.7,0.1-1.1
		c0-0.4,0-0.8-0.1-1.1c-0.1-0.4-0.3-0.7-0.5-0.9s-0.6-0.3-0.9-0.3c-0.8,0-1.2,0.4-1.5,1.3c-0.1,0.3-0.1,0.7-0.1,1.1
		c0,0.4,0,0.8,0.1,1.1c0.1,0.4,0.3,0.7,0.5,1s0.6,0.4,0.9,0.4S146.6,48.4,146.9,48.2z"/>
	<path class="st4" d="M151.9,46.8c0,0-0.1-0.1-0.1-0.2v-2.3c0-0.1,0-0.1,0.1-0.2c0,0,0.1-0.1,0.2-0.1h6.6c0.1,0,0.1,0,0.2,0.1
		c0,0,0.1,0.1,0.1,0.2v2.3c0,0.1,0,0.1-0.1,0.2c0,0-0.1,0.1-0.2,0.1h-6.6C152.1,46.9,152,46.9,151.9,46.8z"/>
	<path class="st4" d="M161.9,50.4c-0.8-0.6-1.4-1.5-1.6-2.5c-0.2-0.5-0.2-1.1-0.2-1.8s0.1-1.3,0.3-1.9c0.3-1,0.9-1.8,1.7-2.4
		c0.8-0.6,1.8-0.9,3-0.9c1.1,0,2.1,0.3,2.9,0.9c0.8,0.6,1.3,1.4,1.7,2.4c0.2,0.6,0.3,1.2,0.3,1.9c0,0.6-0.1,1.2-0.2,1.7
		c-0.3,1.1-0.8,2-1.6,2.6s-1.8,1-3,1C163.7,51.3,162.7,51,161.9,50.4z M165.8,48.2c0.2-0.2,0.4-0.6,0.5-1c0.1-0.3,0.1-0.7,0.1-1.1
		c0-0.4,0-0.8-0.1-1.1c-0.1-0.4-0.3-0.7-0.5-0.9s-0.6-0.3-0.9-0.3c-0.8,0-1.2,0.4-1.5,1.3c-0.1,0.3-0.1,0.7-0.1,1.1
		c0,0.4,0,0.8,0.1,1.1c0.1,0.4,0.3,0.7,0.5,1c0.3,0.2,0.6,0.4,0.9,0.4S165.6,48.4,165.8,48.2z"/>
	<path class="st4" d="M181,46.1c0,0.9-0.1,1.7-0.4,2.5c-0.3,0.8-0.8,1.5-1.4,2c-0.7,0.5-1.5,0.8-2.4,0.8s-1.6-0.3-2.1-0.9
		c0,0-0.1-0.1-0.1,0c0,0,0,0,0,0.1v4.1c0,0.1,0,0.1-0.1,0.2c0,0-0.1,0.1-0.2,0.1h-2.8c-0.1,0-0.1,0-0.2-0.1c0,0-0.1-0.1-0.1-0.2
		V41.3c0-0.1,0-0.1,0.1-0.2c0,0,0.1-0.1,0.2-0.1h2.8c0.1,0,0.1,0,0.2,0.1c0,0,0.1,0.1,0.1,0.2V42v0.1h0.1c0.5-0.7,1.3-1.1,2.2-1.1
		s1.7,0.3,2.3,0.8c0.7,0.5,1.2,1.3,1.5,2.2C180.9,44.6,181,45.3,181,46.1z M177.6,46.1c0-0.7-0.1-1.3-0.4-1.7
		c-0.3-0.5-0.7-0.7-1.2-0.7s-0.9,0.2-1.2,0.7c-0.2,0.4-0.3,1-0.3,1.7s0.1,1.3,0.4,1.8c0.3,0.5,0.7,0.7,1.2,0.7s0.9-0.2,1.2-0.7
		C177.5,47.4,177.6,46.8,177.6,46.1z"/>
	<path class="st4" d="M191.7,46.8c0,0.2-0.1,0.2-0.3,0.2h-5.9h-0.1c0,0,0,0,0,0.1s0.1,0.3,0.2,0.6c0.2,0.3,0.4,0.5,0.7,0.7
		s0.7,0.3,1.2,0.3c0.8,0,1.5-0.3,1.9-0.8c0.1-0.1,0.1-0.1,0.2-0.1c0.1,0,0.1,0,0.2,0.1l1.5,1.7c0.1,0,0.1,0.1,0.1,0.2
		c0,0.1,0,0.1-0.1,0.2c-0.5,0.5-1,0.9-1.7,1.1c-0.7,0.3-1.4,0.4-2.2,0.4c-1.2,0-2.2-0.3-3-0.8s-1.4-1.2-1.8-2.2
		c-0.3-0.7-0.4-1.5-0.4-2.4c0-0.7,0.1-1.3,0.3-2c0.3-1,0.9-1.7,1.7-2.3s1.7-0.8,2.8-0.8c0.9,0,1.6,0.2,2.3,0.6
		c0.7,0.4,1.2,0.9,1.6,1.5c0.4,0.7,0.7,1.4,0.8,2.2C191.7,45.6,191.8,46.1,191.7,46.8z M185.6,44.6c-0.1,0.1-0.1,0.3-0.1,0.4
		c0,0.1,0,0.1,0.1,0.1h2.8c0.1,0,0.1,0,0.1-0.1s0-0.2-0.1-0.4c-0.1-0.3-0.3-0.6-0.5-0.7c-0.2-0.2-0.5-0.3-0.9-0.3
		C186.2,43.7,185.8,44,185.6,44.6z"/>
	<path class="st4" d="M199.5,41.2c0.1,0.1,0.1,0.2,0.1,0.3l-0.4,2.7c0,0.2-0.1,0.2-0.3,0.1c-0.2-0.1-0.5-0.1-0.7-0.1s-0.4,0-0.5,0
		c-0.4,0.1-0.7,0.2-1,0.5s-0.4,0.6-0.4,1v5.1c0,0.1,0,0.1-0.1,0.2c0,0-0.1,0.1-0.2,0.1h-2.8c-0.1,0-0.1,0-0.2-0.1
		c0,0-0.1-0.1-0.1-0.2v-9.6c0-0.1,0-0.1,0.1-0.2c0,0,0.1-0.1,0.2-0.1h2.8c0.1,0,0.1,0,0.2,0.1c0,0,0.1,0.1,0.1,0.2v0.6v0.1
		c0,0,0,0,0.1,0c0.5-0.7,1.2-1,2-1C198.9,40.9,199.3,41,199.5,41.2z"/>
	<path class="st4" d="M207.1,41.4c0.7,0.3,1.3,0.7,1.7,1.2s0.6,1.1,0.6,1.7v6.6c0,0.1,0,0.1-0.1,0.2c0,0-0.1,0.1-0.2,0.1h-2.8
		c-0.1,0-0.1,0-0.2-0.1c0,0-0.1-0.1-0.1-0.2v-0.7c0-0.1,0-0.1,0-0.1s-0.1,0-0.1,0.1c-0.5,0.7-1.3,1.1-2.5,1.1c-1,0-1.9-0.2-2.5-0.7
		s-0.9-1.2-0.9-2.2s0.3-1.8,1-2.3s1.7-0.8,3-0.8h1.9c0.1,0,0.1,0,0.1-0.1v-0.4c0-0.4-0.1-0.6-0.4-0.8c-0.2-0.2-0.6-0.3-1-0.3
		c-0.3,0-0.6,0.1-0.8,0.2s-0.4,0.3-0.4,0.4c-0.1,0.1-0.2,0.2-0.3,0.2l-2.8-0.4c-0.2,0-0.2-0.1-0.2-0.2c0.1-0.6,0.3-1.1,0.7-1.6
		s0.9-0.8,1.6-1.1c0.7-0.3,1.4-0.4,2.2-0.4C205.6,40.9,206.4,41.1,207.1,41.4z M205.7,48.6c0.3-0.3,0.5-0.6,0.5-1v-0.5
		c0-0.1,0-0.1-0.1-0.1h-1.2c-0.5,0-0.9,0.1-1.1,0.3c-0.3,0.2-0.4,0.4-0.4,0.8c0,0.3,0.1,0.5,0.3,0.7s0.5,0.3,0.8,0.3
		C204.9,49,205.3,48.9,205.7,48.6z"/>
	<path class="st4" d="M216.9,43.6c0,0-0.1,0.1-0.2,0.1h-1.8c-0.1,0-0.1,0-0.1,0.1v3.5c0,0.7,0.3,1.1,0.9,1.1h0.7
		c0.1,0,0.1,0,0.2,0.1c0,0,0.1,0.1,0.1,0.2V51c0,0.1-0.1,0.2-0.2,0.3c-0.6,0-1.1,0-1.4,0c-1.1,0-2-0.2-2.5-0.5s-0.8-1-0.8-2v-4.9
		c0-0.1,0-0.1-0.1-0.1h-1.1c-0.1,0-0.1,0-0.2-0.1c0,0-0.1-0.1-0.1-0.2v-2.1c0-0.1,0-0.1,0.1-0.2c0,0,0.1-0.1,0.2-0.1h1.1
		c0.1,0,0.1,0,0.1-0.1v-2.4c0-0.1,0-0.1,0.1-0.2s0.1-0.1,0.2-0.1h2.6c0.1,0,0.1,0,0.2,0.1s0.1,0.1,0.1,0.2V41c0,0.1,0,0.1,0.1,0.1
		h1.8c0.1,0,0.1,0,0.2,0.1c0,0,0.1,0.1,0.1,0.2v2.1C216.9,43.5,216.9,43.6,216.9,43.6z"/>
	<path class="st4" d="M218.7,39.7c-0.3-0.3-0.5-0.7-0.5-1.2s0.2-0.9,0.5-1.2s0.7-0.5,1.2-0.5s0.9,0.2,1.2,0.5s0.5,0.7,0.5,1.2
		s-0.2,0.9-0.5,1.2s-0.7,0.5-1.2,0.5S219,40,218.7,39.7z M218.3,51.1c0,0-0.1-0.1-0.1-0.2v-9.6c0-0.1,0-0.1,0.1-0.2
		c0,0,0.1-0.1,0.2-0.1h2.8c0.1,0,0.1,0,0.2,0.1c0,0,0.1,0.1,0.1,0.2v9.6c0,0.1,0,0.1-0.1,0.2c0,0-0.1,0.1-0.2,0.1h-2.8
		C218.4,51.2,218.4,51.1,218.3,51.1z"/>
	<path class="st4" d="M225.8,51l-3.1-9.6v-0.1c0-0.1,0.1-0.2,0.2-0.2h3c0.1,0,0.2,0.1,0.3,0.2l1.3,5.4c0,0,0,0.1,0.1,0.1
		c0,0,0,0,0.1-0.1l1.3-5.4c0-0.1,0.1-0.2,0.3-0.2h3c0.1,0,0.1,0,0.2,0.1c0,0,0,0.1,0,0.2l-3,9.6c0,0.1-0.1,0.2-0.3,0.2h-3.1
		C225.9,51.2,225.8,51.1,225.8,51z"/>
	<path class="st4" d="M242.3,46.8c0,0.2-0.1,0.2-0.3,0.2h-5.9H236c0,0,0,0,0,0.1s0.1,0.3,0.2,0.6c0.2,0.3,0.4,0.5,0.7,0.7
		s0.7,0.3,1.2,0.3c0.8,0,1.5-0.3,1.9-0.8c0.1-0.1,0.1-0.1,0.2-0.1c0.1,0,0.1,0,0.2,0.1l1.5,1.7c0.1,0,0.1,0.1,0.1,0.2
		c0,0.1,0,0.1-0.1,0.2c-0.5,0.5-1,0.9-1.7,1.1c-0.7,0.3-1.4,0.4-2.2,0.4c-1.2,0-2.2-0.3-3-0.8s-1.4-1.2-1.8-2.2
		c-0.3-0.7-0.4-1.5-0.4-2.4c0-0.7,0.1-1.3,0.3-2c0.3-1,0.9-1.7,1.7-2.3s1.7-0.8,2.8-0.8c0.9,0,1.6,0.2,2.3,0.6s1.2,0.9,1.6,1.5
		c0.4,0.7,0.7,1.4,0.8,2.2C242.3,45.6,242.3,46.1,242.3,46.8z M236.1,44.6c-0.1,0.1-0.1,0.3-0.1,0.4c0,0.1,0,0.1,0.1,0.1h2.8
		c0.1,0,0.1,0,0.1-0.1s0-0.2-0.1-0.4c-0.1-0.3-0.3-0.6-0.5-0.7c-0.2-0.2-0.5-0.3-0.9-0.3C236.8,43.7,236.3,44,236.1,44.6z"/>
	<path class="st4" d="M256.2,44.2c1.2,0.6,1.8,1.7,1.8,3.1c0,1.3-0.4,2.3-1.3,2.9c-0.9,0.6-2.1,1-3.5,1H248c-0.1,0-0.1,0-0.2-0.1
		c0,0-0.1-0.1-0.1-0.2V37.7c0-0.1,0-0.1,0.1-0.2c0,0,0.1-0.1,0.2-0.1h5c1.6,0,2.8,0.3,3.6,0.9s1.2,1.6,1.2,2.9
		c0,1.3-0.5,2.2-1.6,2.8C256.1,44.1,256.1,44.1,256.2,44.2z M250.9,40.4v2.5c0,0.1,0,0.1,0.1,0.1h1.9c0.5,0,0.9-0.1,1.2-0.3
		s0.4-0.5,0.4-1c0-0.4-0.1-0.8-0.4-1c-0.3-0.2-0.7-0.4-1.2-0.4L250.9,40.4C250.9,40.3,250.9,40.3,250.9,40.4z M254.3,48
		c0.3-0.2,0.4-0.6,0.4-1s-0.1-0.8-0.4-1c-0.3-0.2-0.7-0.4-1.2-0.4H251c-0.1,0-0.1,0-0.1,0.1v2.6c0,0.1,0,0.1,0.1,0.1h2.1
		C253.6,48.4,254,48.3,254.3,48z"/>
	<path class="st4" d="M266.1,41.4c0.7,0.3,1.3,0.7,1.7,1.2s0.6,1.1,0.6,1.7v6.6c0,0.1,0,0.1-0.1,0.2c0,0-0.1,0.1-0.2,0.1h-2.8
		c-0.1,0-0.1,0-0.2-0.1c0,0-0.1-0.1-0.1-0.2v-0.7c0-0.1,0-0.1,0-0.1s-0.1,0-0.1,0.1c-0.5,0.7-1.3,1.1-2.5,1.1c-1,0-1.9-0.2-2.5-0.7
		s-0.9-1.2-0.9-2.2s0.3-1.8,1-2.3s1.7-0.8,3-0.8h1.9c0.1,0,0.1,0,0.1-0.1v-0.4c0-0.4-0.1-0.6-0.4-0.8c-0.2-0.2-0.6-0.3-1-0.3
		c-0.3,0-0.6,0.1-0.8,0.2s-0.4,0.3-0.4,0.4c-0.1,0.1-0.2,0.2-0.3,0.2l-2.8-0.4c-0.2,0-0.2-0.1-0.2-0.2c0.1-0.6,0.3-1.1,0.7-1.6
		c0.4-0.5,0.9-0.8,1.6-1.1s1.4-0.4,2.2-0.4C264.6,40.9,265.4,41.1,266.1,41.4z M264.7,48.6c0.3-0.3,0.5-0.6,0.5-1v-0.5
		c0-0.1,0-0.1-0.1-0.1h-1.2c-0.5,0-0.9,0.1-1.1,0.3s-0.4,0.4-0.4,0.8c0,0.3,0.1,0.5,0.3,0.7c0.2,0.2,0.5,0.3,0.8,0.3
		C263.9,49,264.3,48.9,264.7,48.6z"/>
	<path class="st4" d="M278.1,41.9c0.7,0.6,1,1.5,1,2.6v6.4c0,0.1,0,0.1-0.1,0.2c0,0-0.1,0.1-0.2,0.1H276c-0.1,0-0.1,0-0.2-0.1
		c0,0-0.1-0.1-0.1-0.2v-5.7c0-0.4-0.1-0.8-0.4-1.1c-0.2-0.3-0.6-0.4-1-0.4s-0.7,0.1-1,0.4c-0.2,0.3-0.4,0.6-0.4,1.1v5.7
		c0,0.1,0,0.1-0.1,0.2c0,0-0.1,0.1-0.2,0.1h-2.8c-0.1,0-0.1,0-0.2-0.1c0,0-0.1-0.1-0.1-0.2v-9.6c0-0.1,0-0.1,0.1-0.2
		c0,0,0.1-0.1,0.2-0.1h2.8c0.1,0,0.1,0,0.2,0.1c0,0,0.1,0.1,0.1,0.2V42c0,0.1,0,0.1,0,0.1s0,0,0.1,0c0.5-0.8,1.3-1.2,2.3-1.2
		C276.7,40.9,277.5,41.2,278.1,41.9z"/>
	<path class="st4" d="M280.8,51.1c0,0-0.1-0.1-0.1-0.2V37.7c0-0.1,0-0.1,0.1-0.2c0,0,0.1-0.1,0.2-0.1h2.8c0.1,0,0.1,0,0.2,0.1
		c0,0,0.1,0.1,0.1,0.2v6.1v0.1h0.1l2.1-2.6c0.1-0.1,0.2-0.1,0.3-0.1h3.2c0.1,0,0.2,0,0.2,0.1c0,0,0,0.1-0.1,0.2l-2.6,3.3v0.1
		l2.9,6.1c0,0.1,0,0.1,0,0.1c0,0.1-0.1,0.2-0.2,0.2h-2.9c-0.1,0-0.2-0.1-0.3-0.2l-1.8-4.2c0,0,0,0-0.1,0h-0.1l-0.9,1.3
		c0,0.1,0,0.1,0,0.1V51c0,0.1,0,0.1-0.1,0.2c0,0-0.1,0.1-0.2,0.1h-2.8C280.9,51.2,280.8,51.1,280.8,51.1z"/>
</g>
<g>
	<path class="st4" d="M158.8,73.3l-0.1-0.1V62.4c0-0.1,0-0.1,0.1-0.1l0.1-0.1h1.5c0.1,0,0.1,0,0.1,0.1l0.1,0.1v9.3
		c0,0.1,0,0.1,0.1,0.1h5.4c0.1,0,0.1,0,0.1,0.1l0.1,0.1v1.2c0,0.1,0,0.1-0.1,0.1l-0.1,0.1H159C158.9,73.4,158.9,73.4,158.8,73.3z"/>
	<path class="st4" d="M171.7,66.7l-0.1,0.1H170c-0.1,0-0.1,0-0.1,0.1v3.9c0,0.4,0.1,0.7,0.3,0.9c0.2,0.2,0.5,0.3,0.8,0.3h0.5
		c0.1,0,0.1,0,0.1,0.1l0.1,0.1v1.2c0,0.1-0.1,0.2-0.2,0.2h-0.8c-0.8,0-1.5-0.1-1.9-0.4s-0.6-0.8-0.6-1.6V67c0-0.1,0-0.1-0.1-0.1
		h-0.9c-0.1,0-0.1,0-0.1-0.1l-0.1-0.1v-1.1c0-0.1,0-0.1,0.1-0.1l0.1-0.1h0.9c0.1,0,0.1,0,0.1-0.1v-1.9c0-0.1,0-0.1,0.1-0.1
		s0.1-0.1,0.1-0.1h1.4c0.1,0,0.1,0,0.1,0.1s0.1,0.1,0.1,0.1v1.9c0,0.1,0,0.1,0.1,0.1h1.6c0.1,0,0.1,0,0.1,0.1l0.1,0.1v1.1
		C171.8,66.6,171.8,66.6,171.7,66.7z"/>
	<path class="st4" d="M178.4,62.2l0.1-0.1h1.5c0.1,0,0.1,0,0.1,0.1l0.1,0.1v10.8c0,0.1,0,0.1-0.1,0.1s-0.1,0.1-0.1,0.1h-1.5
		c-0.1,0-0.1,0-0.1-0.1s-0.1-0.1-0.1-0.1v-0.5v-0.1c0,0,0,0-0.1,0c-0.5,0.6-1.1,0.8-1.8,0.8c-0.8,0-1.4-0.2-1.9-0.6
		s-0.9-0.9-1.1-1.6c-0.2-0.6-0.3-1.3-0.3-2c0-0.8,0.1-1.4,0.3-2c0.2-0.7,0.6-1.3,1.1-1.6s1.2-0.6,2-0.6c0.7,0,1.3,0.3,1.8,0.8
		c0,0,0,0,0.1,0c0,0,0,0,0-0.1V62.2C178.4,62.3,178.4,62.3,178.4,62.2z M178.3,69.3c0-0.8-0.1-1.5-0.4-1.9c-0.3-0.5-0.7-0.7-1.2-0.7
		s-1,0.2-1.3,0.7s-0.5,1.1-0.5,2c0,0.7,0.1,1.4,0.4,1.8c0.3,0.5,0.8,0.8,1.4,0.8c0.5,0,1-0.3,1.3-0.8
		C178.2,70.7,178.3,70.1,178.3,69.3z"/>
	<path class="st4" d="M182.6,73.1c-0.2-0.2-0.3-0.5-0.3-0.8s0.1-0.6,0.3-0.8c0.2-0.2,0.5-0.3,0.8-0.3s0.6,0.1,0.8,0.3
		c0.2,0.2,0.3,0.5,0.3,0.8s-0.1,0.6-0.3,0.8c-0.2,0.2-0.5,0.3-0.8,0.3C183,73.4,182.8,73.3,182.6,73.1z"/>
	<path class="st4" d="M196.5,62.2l0.1-0.1h1.5c0.1,0,0.1,0,0.1,0.1l0.1,0.1v10.8c0,0.1,0,0.1-0.1,0.1l-0.1,0.1h-1.4
		c-0.1,0-0.2,0-0.2-0.1l-4.6-7.6c0,0,0,0-0.1,0c0,0,0,0,0,0.1v7.5c0,0.1,0,0.1-0.1,0.1l-0.1,0.1h-1.5c-0.1,0-0.1,0-0.1-0.1l-0.1-0.1
		V62.4c0-0.1,0-0.1,0.1-0.1l0.1-0.1h1.4c0.1,0,0.2,0,0.2,0.1l4.6,7.6c0,0,0,0,0.1,0c0,0,0,0,0-0.1v-7.5
		C196.5,62.3,196.5,62.3,196.5,62.2z"/>
	<path class="st4" d="M201.8,72.9c-0.6-0.4-1-1-1.3-1.8c-0.2-0.6-0.3-1.2-0.3-1.8c0-0.7,0.1-1.3,0.3-1.8c0.2-0.7,0.7-1.3,1.3-1.7
		c0.6-0.4,1.3-0.6,2.2-0.6c0.8,0,1.5,0.2,2.1,0.6s1,1,1.3,1.7c0.2,0.5,0.3,1.1,0.3,1.8c0,0.7-0.1,1.3-0.3,1.8
		c-0.2,0.8-0.7,1.4-1.3,1.8s-1.3,0.6-2.1,0.6C203.1,73.5,202.4,73.3,201.8,72.9z M205,71.6c0.3-0.2,0.5-0.5,0.6-0.9s0.2-0.8,0.2-1.3
		c0-0.6-0.1-1-0.2-1.3c-0.1-0.4-0.3-0.7-0.6-0.9s-0.6-0.3-1.1-0.3c-0.4,0-0.7,0.1-1,0.3s-0.5,0.5-0.6,0.9s-0.2,0.8-0.2,1.3
		s0.1,1,0.2,1.3c0.1,0.4,0.3,0.7,0.6,0.9c0.3,0.2,0.6,0.3,1.1,0.3C204.4,71.9,204.7,71.8,205,71.6z"/>
	<path class="st4" d="M209.5,73.1c-0.2-0.2-0.3-0.5-0.3-0.8s0.1-0.6,0.3-0.8c0.2-0.2,0.5-0.3,0.8-0.3s0.6,0.1,0.8,0.3
		c0.2,0.2,0.3,0.5,0.3,0.8s-0.1,0.6-0.3,0.8c-0.2,0.2-0.5,0.3-0.8,0.3S209.7,73.3,209.5,73.1z"/>
	<path class="st4" d="M218.6,73c-0.6-0.3-1.1-0.8-1.4-1.3c-0.3-0.6-0.5-1.2-0.5-2v-4c0-0.7,0.2-1.4,0.5-2s0.8-1,1.4-1.3
		c0.6-0.3,1.3-0.5,2.1-0.5s1.5,0.1,2.1,0.4c0.6,0.3,1.1,0.7,1.4,1.3c0.3,0.5,0.5,1.2,0.5,1.9c0,0.1,0,0.1-0.1,0.1l-0.1,0.1l-1.5,0.1
		c-0.1,0-0.2-0.1-0.2-0.2c0-0.6-0.2-1.1-0.6-1.5c-0.4-0.4-0.9-0.6-1.6-0.6s-1.2,0.2-1.6,0.6c-0.4,0.4-0.6,0.9-0.6,1.5v4.1
		c0,0.6,0.2,1.1,0.6,1.5c0.4,0.4,0.9,0.6,1.6,0.6s1.2-0.2,1.6-0.6s0.6-0.9,0.6-1.5c0-0.1,0.1-0.2,0.2-0.2l1.5,0.1c0.1,0,0.1,0,0.1,0
		l0.1,0.1c0,0.7-0.2,1.4-0.5,1.9s-0.8,1-1.4,1.3c-0.6,0.3-1.3,0.4-2.1,0.4C219.9,73.5,219.2,73.4,218.6,73z"/>
	<path class="st4" d="M234,68.8l0.1,0.1v1.3c0,0.1,0,0.1-0.1,0.1l-0.1,0.1h-0.7c-0.1,0-0.1,0-0.1,0.1v2.7c0,0.1,0,0.1-0.1,0.1
		s-0.1,0.1-0.1,0.1h-1.5c-0.1,0-0.1,0-0.1-0.1s-0.1-0.1-0.1-0.1v-2.7c0-0.1,0-0.1-0.1-0.1h-4.9c-0.1,0-0.1,0-0.1-0.1
		s-0.1-0.1-0.1-0.1v-1c0-0.1,0-0.1,0-0.2l3-6.7c0-0.1,0.1-0.1,0.2-0.1h1.6c0.1,0,0.1,0,0.2,0.1c0,0,0,0.1,0,0.2l-2.8,6.3
		c0,0,0,0,0,0.1s0,0,0,0h2.8c0.1,0,0.1,0,0.1-0.1v-2.2c0-0.1,0-0.1,0.1-0.1s0.1-0.1,0.1-0.1h1.5c0.1,0,0.1,0,0.1,0.1
		s0.1,0.1,0.1,0.1v2.2c0,0.1,0,0.1,0.1,0.1h0.7C233.9,68.8,233.9,68.8,234,68.8z"/>
	<path class="st4" d="M242.7,69.8c0,0.7-0.1,1.2-0.3,1.7c-0.3,0.6-0.7,1.1-1.2,1.4s-1.2,0.5-2,0.5s-1.5-0.2-2-0.6
		c-0.6-0.4-1-0.9-1.2-1.5c-0.2-0.4-0.3-1-0.3-1.6V65c0-0.6,0.1-1.1,0.4-1.5s0.7-0.8,1.2-1s1.1-0.4,1.8-0.4s1.2,0.1,1.7,0.4
		c0.5,0.2,0.9,0.6,1.2,1s0.4,0.9,0.4,1.5v0.4c0,0.1,0,0.1-0.1,0.1l-0.1,0.1h-1.5c-0.1,0-0.1,0-0.1-0.1l-0.1-0.1v-0.1
		c0-0.4-0.1-0.8-0.4-1c-0.3-0.3-0.6-0.4-1.1-0.4c-0.4,0-0.8,0.1-1.1,0.4s-0.4,0.6-0.4,1.1v1.7v0.1c0,0,0,0,0.1,0
		c0.4-0.4,1.1-0.7,1.9-0.7c0.6,0,1.2,0.1,1.7,0.4s0.9,0.7,1.1,1.2C242.6,68.4,242.7,69.1,242.7,69.8z M240.8,69.9
		c0-0.5-0.1-0.9-0.3-1.2c-0.3-0.5-0.8-0.8-1.4-0.8c-0.7,0-1.1,0.3-1.4,0.8c-0.2,0.3-0.2,0.7-0.2,1.2c0,0.4,0.1,0.8,0.2,1.1
		c0.3,0.6,0.7,0.9,1.4,0.9s1.1-0.3,1.4-0.9C240.8,70.7,240.8,70.3,240.8,69.9z"/>
	<path class="st4" d="M251.1,70.2c0,0.6-0.1,1.2-0.4,1.7c-0.3,0.5-0.7,0.9-1.2,1.2s-1.2,0.4-1.9,0.4s-1.3-0.1-1.9-0.4
		s-1-0.7-1.2-1.2c-0.3-0.5-0.4-1.1-0.4-1.7s0.1-1.1,0.4-1.6c0.2-0.4,0.5-0.8,0.9-1c0.1,0,0.1-0.1,0-0.1c-0.3-0.2-0.5-0.5-0.7-0.8
		c-0.3-0.4-0.4-0.9-0.4-1.5c0-0.7,0.2-1.3,0.6-1.8c0.3-0.4,0.7-0.7,1.2-1c0.5-0.2,1-0.3,1.6-0.3s1.2,0.1,1.7,0.3s0.9,0.6,1.1,1
		c0.4,0.5,0.6,1.1,0.6,1.8c0,0.6-0.1,1.1-0.4,1.5c-0.2,0.3-0.4,0.5-0.7,0.7v0.1c0.4,0.2,0.7,0.6,0.9,1C251,69,251.1,69.5,251.1,70.2
		z M249.2,70c0-0.5-0.1-0.9-0.3-1.2c-0.3-0.5-0.7-0.7-1.4-0.7c-0.6,0-1.1,0.2-1.4,0.7c-0.2,0.3-0.3,0.7-0.3,1.2s0.1,0.9,0.3,1.2
		c0.3,0.5,0.7,0.7,1.4,0.7c0.6,0,1-0.2,1.3-0.7C249.1,70.9,249.2,70.5,249.2,70z M246,65.1c0,0.4,0.1,0.7,0.3,1
		c0.3,0.4,0.7,0.7,1.3,0.7s1-0.2,1.3-0.7c0.2-0.2,0.2-0.6,0.2-1c0-0.2-0.1-0.5-0.2-0.7c-0.1-0.2-0.3-0.4-0.6-0.6
		c-0.2-0.1-0.5-0.2-0.8-0.2s-0.6,0.1-0.8,0.2c-0.2,0.1-0.4,0.3-0.5,0.6C246.1,64.7,246,64.9,246,65.1z"/>
	<path class="st4" d="M255.1,71.8L255.1,71.8h4.6c0.1,0,0.1,0,0.1,0.1s0.1,0.1,0.1,0.1v1.2c0,0.1,0,0.1-0.1,0.1s-0.1,0.1-0.1,0.1
		h-6.9c-0.1,0-0.1,0-0.1-0.1l-0.1-0.1V72c0-0.1,0-0.2,0.1-0.2c0.8-0.9,1.7-1.9,2.8-3.2l0.8-0.9c1-1.1,1.5-2,1.5-2.6
		c0-0.4-0.2-0.8-0.5-1.1s-0.7-0.4-1.2-0.4s-0.9,0.1-1.2,0.4s-0.5,0.6-0.5,1.1v0.4c0,0.1,0,0.1-0.1,0.1l-0.1,0.1h-1.5
		c-0.1,0-0.1,0-0.1-0.1l-0.1-0.1v-0.7c0-0.6,0.2-1.1,0.5-1.5s0.7-0.8,1.3-1c0.5-0.2,1.1-0.4,1.8-0.4c0.7,0,1.3,0.1,1.9,0.4
		c0.5,0.3,0.9,0.6,1.2,1.1s0.4,1,0.4,1.6c0,0.9-0.5,1.9-1.4,3c-0.5,0.6-1.4,1.6-2.5,2.9L255.1,71.8
		C255.1,71.7,255.1,71.7,255.1,71.8z"/>
</g>
</svg>
