<svg height="517pt" viewBox="0 -51 517.3746 517" width="517pt" xmlns="http://www.w3.org/2000/svg"><path d="m453.988281 152.832031 56.390625 81.71875h-112.777344zm0 0" fill="#00acea"/><path d="m378.691406 207.792969c0-66.113281-53.726562-119.710938-120-119.710938-66.277344 0-120 53.597657-120 119.710938s53.722656 119.710937 120 119.710937c66.273438 0 120-53.597656 120-119.710937zm0 0" fill="#00efd1"/><path d="m119.78125 181.03125-56.390625 81.722656-56.390625-81.722656zm0 0" fill="#00efd1"/><g fill="#083863"><path d="m459.75 148.855469c-1.304688-1.890625-3.460938-3.023438-5.761719-3.023438s-4.453125 1.132813-5.757812 3.023438l-56.390625 81.722656c-1.480469 2.140625-1.648438 4.921875-.4375 7.226563 1.207031 2.304687 3.597656 3.746093 6.199218 3.746093h47.214844c-6.878906 44.890625-30.46875 85.667969-66.886718 115.347657-34.695313 28.277343-78.292969 44.492187-119.609376 44.492187-26.949218 0-55.125-6.898437-81.480468-19.964844-27.074219-13.351562-50.769532-32.667969-69.304688-56.496093-2.371094-3.027344-6.738281-3.574219-9.785156-1.230469-3.042969 2.347656-3.628906 6.710937-1.304688 9.773437 19.835938 25.515625 45.195313 46.199219 74.175782 60.5 28.28125 14.015625 58.601562 21.425782 87.703125 21.425782 44.484375 0 91.296875-17.363282 128.449219-47.640626 39.703124-32.355468 65.222656-77.035156 72.203124-126.199218h51.398438c2.601562 0 4.988281-1.445313 6.199219-3.75 1.207031-2.300782 1.039062-5.085938-.4375-7.226563zm-48.816406 78.699219 43.054687-62.398438 43.054688 62.394531zm0 0"/><path d="m125.976562 177.78125c-1.207031-2.304688-3.597656-3.75-6.199218-3.75h-47.214844c6.882812-44.886719 30.46875-85.664062 66.890625-115.347656 34.695313-28.273438 78.289063-44.492188 119.605469-44.492188 26.949218 0 55.125 6.902344 81.480468 19.96875 27.074219 13.351563 50.765626 32.667969 69.300782 56.496094 2.371094 3.023438 6.738281 3.574219 9.785156 1.226562 3.042969-2.34375 3.628906-6.707031 1.304688-9.773437-19.835938-25.511719-45.195313-46.199219-74.179688-60.5-28.277344-14.015625-58.597656-21.421875-87.699219-21.421875-44.484375 0-91.300781 17.363281-128.449219 47.640625-39.695312 32.363281-65.210937 77.039063-72.199218 126.203125h-51.402344c-2.601562 0-4.988281 1.445312-6.199219 3.746094-1.207031 2.304687-1.039062 5.089844.4375 7.230468l56.390625 81.71875c1.308594 1.894532 3.460938 3.027344 5.761719 3.027344s4.453125-1.132812 5.761719-3.027344l56.386718-81.71875c1.480469-2.140624 1.648438-4.925781.4375-7.226562zm-62.585937 72.644531-43.054687-62.394531h86.109374zm0 0"/><path d="m131.691406 207.792969c0 69.867187 56.96875 126.710937 127 126.710937 70.027344 0 127-56.84375 127-126.710937 0-69.867188-56.972656-126.710938-127-126.710938-70.03125 0-127 56.84375-127 126.710938zm240 0c0 62.148437-50.691406 112.710937-113 112.710937-62.3125 0-113-50.5625-113-112.710937 0-62.148438 50.6875-112.710938 113-112.710938 62.308594 0 113 50.5625 113 112.710938zm0 0"/><path d="m216.96875 136.792969c-3.863281 0-7 3.132812-7 7 0 3.867187 3.136719 7 7 7h23.882812c13.203126.015625 24.710938 8.996093 27.9375 21.800781h-51.820312c-3.863281 0-7 3.132812-7 7 0 3.863281 3.136719 7 7 7h51.828125c-3.21875 12.808594-14.738281 21.792969-27.945313 21.796875h-23.882812c-2.867188 0-5.445312 1.75-6.503906 4.414063-1.058594 2.664062-.386719 5.707031 1.695312 7.675781l59.683594 56.398437c2.808594 2.65625 7.238281 2.53125 9.894531-.277344 2.65625-2.808593 2.53125-7.242187-.28125-9.894531l-46.886719-44.316406h6.28125c20.9375.003906 38.800782-15.144531 42.222657-35.796875h17.335937c3.867188 0 7-3.136719 7-7 0-3.867188-3.132812-7-7-7h-17.339844c-1.347656-8.136719-5.023437-15.710938-10.582031-21.800781h27.929688c3.863281 0 7-3.132813 7-7 0-3.867188-3.136719-7-7-7zm0 0"/></g></svg>