<?xml version="1.0" encoding="iso-8859-1"?>
<!-- Generator: Adobe Illustrator 19.0.0, SVG Export Plug-In . SVG Version: 6.00 Build 0)  -->
<svg version="1.1" id="Capa_1" xmlns="http://www.w3.org/2000/svg" xmlns:xlink="http://www.w3.org/1999/xlink" x="0px" y="0px"
	 viewBox="0 0 512 512" style="enable-background:new 0 0 512 512;" xml:space="preserve">
<path style="fill:#0A4EAF;" d="M31,0v512h310V0H31z"/>
<path style="fill:#063E8B;" d="M186,0v512h155V0H186z"/>
<rect x="61" y="70" style="fill:#7D8AFF;" width="250" height="332"/>
<rect x="186" y="70" style="fill:#6E76E5;" width="125" height="332"/>
<rect x="156" y="442" style="fill:#063E8B;" width="60" height="30"/>
<path style="fill:#FFDC40;" d="M434.757,38.758C405.598,13.765,366.974,0,326,0s-79.598,13.765-108.757,38.758
	C187.423,64.319,171,98.498,171,135s16.423,70.681,46.243,96.242c5.344,4.58,11.008,8.78,16.944,12.59
	c-10.961,16.515-23.775,31.695-38.187,45.198c31.437-2.6,61.245-10.931,88.395-23.924C297.78,268.33,311.747,270,326,270
	c40.974,0,79.598-13.765,108.757-38.758C464.577,205.681,481,171.502,481,135S464.577,64.319,434.757,38.758z"/>
<path style="fill:#FFAB15;" d="M434.757,38.758C405.598,13.765,366.974,0,326,0v270c40.974,0,79.598-13.765,108.757-38.758
	C464.577,205.681,481,171.502,481,135S464.577,64.319,434.757,38.758z"/>
<g>
	<circle style="fill:#FFFFFF;" cx="326" cy="135" r="20"/>
	<circle style="fill:#FFFFFF;" cx="256" cy="135" r="20"/>
</g>
<g>
	<circle style="fill:#DCF4FF;" cx="396" cy="135" r="20"/>
	<path style="fill:#DCF4FF;" d="M326,115v40c11.046,0,20-8.954,20-20S337.046,115,326,115z"/>
</g>
<rect x="186" y="442" style="fill:#032E68;" width="30" height="30"/>
<g>
</g>
<g>
</g>
<g>
</g>
<g>
</g>
<g>
</g>
<g>
</g>
<g>
</g>
<g>
</g>
<g>
</g>
<g>
</g>
<g>
</g>
<g>
</g>
<g>
</g>
<g>
</g>
<g>
</g>
</svg>
