<?xml version="1.0" encoding="utf-8"?>
<!-- Generator: Adobe Illustrator 22.1.0, SVG Export Plug-In . SVG Version: 6.00 Build 0)  -->
<svg version="1.1" id="Capa_1" xmlns="http://www.w3.org/2000/svg" xmlns:xlink="http://www.w3.org/1999/xlink" x="0px" y="0px"
	 width="512px" height="512px" viewBox="0 0 512 512" style="enable-background:new 0 0 512 512;" xml:space="preserve">
<style type="text/css">
	.st0{fill:#17479E;}
</style>
<g>
	<g>
		<path class="st0" d="M258.8,122.2c86.3,0.8,140.3-4.5,147.6,91.1h105.2c0-148.1-129.2-168.1-255.6-168.1
			c-126.4,0-255.6,20-255.6,168.1h104.4C113,115.9,173.3,121.4,258.8,122.2z"/>
		<path class="st0" d="M52.7,261c25.6,0,46.9,1.5,51.7-23.7c0.6-3.4,1-7.3,1-11.8h-1.2H0C0,263,23.6,261,52.7,261z"/>
		<path class="st0" d="M407.1,225.5h-1c0,4.5,0.4,8.4,1.1,11.8c5,23.2,26.3,21.8,51.8,21.8c29.2,0,52.9,1.9,52.9-33.6L407.1,225.5
			L407.1,225.5z"/>
		<path class="st0" d="M355.7,199.9v-14.9c0-6.7-7.7-7.1-17.2-7.1h-15.5c-9.5,0-17.1,0.4-17.1,7.1v12.8v10H196.4v-10v-12.8
			c0-6.7-7.7-7.1-17.1-7.1h-15.5c-9.5,0-17.1,0.4-17.1,7.1v14.9v13C121.6,238.9,40,349.3,37,362.6l0,89.2c0,8.2,6.7,14.9,14.9,14.9
			h398.3c8.2,0,14.9-6.7,14.9-14.9v-89.6c-2.9-13-84.6-123.3-109.5-149.2V199.9z M191,374.6c-8,0-14.5-6.5-14.5-14.5
			c0-8,6.5-14.5,14.5-14.5s14.5,6.5,14.5,14.5C205.5,368.1,199,374.6,191,374.6z M191,324.8c-8,0-14.5-6.5-14.5-14.5
			s6.5-14.5,14.5-14.5s14.5,6.5,14.5,14.5S199,324.8,191,324.8z M191,275.1c-8,0-14.5-6.5-14.5-14.5c0-8,6.5-14.5,14.5-14.5
			s14.5,6.5,14.5,14.5C205.5,268.6,199,275.1,191,275.1z M250.7,374.6c-8,0-14.5-6.5-14.5-14.5c0-8,6.5-14.5,14.5-14.5
			c8,0,14.5,6.5,14.5,14.5C265.2,368.1,258.8,374.6,250.7,374.6z M250.7,324.8c-8,0-14.5-6.5-14.5-14.5s6.5-14.5,14.5-14.5
			c8,0,14.5,6.5,14.5,14.5S258.8,324.8,250.7,324.8z M250.7,275.1c-8,0-14.5-6.5-14.5-14.5c0-8,6.5-14.5,14.5-14.5
			c8,0,14.5,6.5,14.5,14.5C265.2,268.6,258.8,275.1,250.7,275.1z M310.5,374.6c-8,0-14.5-6.5-14.5-14.5c0-8,6.5-14.5,14.5-14.5
			c8,0,14.5,6.5,14.5,14.5C325,368.1,318.5,374.6,310.5,374.6z M310.5,324.8c-8,0-14.5-6.5-14.5-14.5s6.5-14.5,14.5-14.5
			c8,0,14.5,6.5,14.5,14.5S318.5,324.8,310.5,324.8z M310.5,275.1c-8,0-14.5-6.5-14.5-14.5c0-8,6.5-14.5,14.5-14.5
			c8,0,14.5,6.5,14.5,14.5C325,268.6,318.5,275.1,310.5,275.1z"/>
	</g>
</g>
</svg>
